<svg xmlns="http://www.w3.org/2000/svg" xmlns:xlink="http://www.w3.org/1999/xlink" width="500" zoomAndPan="magnify" viewBox="0 0 375 374.999991" height="500" preserveAspectRatio="xMidYMid meet" version="1.0"><defs><clipPath id="67fd8d5d54"><path d="M 58.566406 46.238281 L 290 46.238281 L 290 259 L 58.566406 259 Z M 58.566406 46.238281 " clip-rule="nonzero"/></clipPath><clipPath id="ade51ae0e5"><path d="M 85 116 L 316.566406 116 L 316.566406 328.988281 L 85 328.988281 Z M 85 116 " clip-rule="nonzero"/></clipPath></defs><g clip-path="url(#67fd8d5d54)"><path fill="#ecf0f1" d="M 138.558594 215.164062 L 236.421875 215.164062 C 238.476562 215.164062 240.496094 215.417969 242.484375 215.925781 C 244.472656 216.4375 246.363281 217.183594 248.164062 218.167969 C 249.964844 219.15625 251.613281 220.347656 253.113281 221.75 C 254.613281 223.148438 255.914062 224.714844 257.019531 226.441406 C 256.542969 226.925781 256.097656 227.433594 255.675781 227.964844 C 255.253906 228.492188 254.863281 229.046875 254.5 229.621094 C 254.140625 230.191406 253.808594 230.785156 253.511719 231.394531 C 253.214844 232.003906 252.953125 232.625 252.722656 233.265625 C 252.492188 233.902344 252.296875 234.550781 252.136719 235.207031 C 251.976562 235.867188 251.851562 236.53125 251.765625 237.203125 C 251.679688 237.878906 251.625 238.550781 251.613281 239.230469 C 251.597656 239.90625 251.617188 240.582031 251.675781 241.257812 C 251.734375 241.933594 251.832031 242.605469 251.960938 243.269531 C 252.09375 243.933594 252.257812 244.589844 252.460938 245.238281 C 252.664062 245.886719 252.898438 246.519531 253.167969 247.140625 C 253.441406 247.761719 253.742188 248.367188 254.078125 248.957031 C 254.417969 249.546875 254.78125 250.113281 255.179688 250.664062 C 255.578125 251.210938 256.003906 251.738281 256.457031 252.242188 C 256.914062 252.742188 257.394531 253.21875 257.898438 253.671875 C 258.40625 254.121094 258.933594 254.542969 259.488281 254.9375 C 260.039062 255.332031 260.609375 255.695312 261.203125 256.027344 C 261.792969 256.359375 262.398438 256.65625 263.023438 256.921875 C 263.648438 257.1875 264.28125 257.421875 264.929688 257.617188 C 265.578125 257.816406 266.238281 257.976562 266.902344 258.101562 C 267.570312 258.230469 268.238281 258.320312 268.914062 258.371094 C 269.589844 258.425781 270.269531 258.441406 270.945312 258.421875 C 271.625 258.402344 272.296875 258.347656 272.96875 258.253906 C 273.640625 258.160156 274.304688 258.03125 274.964844 257.867188 C 275.621094 257.703125 276.265625 257.503906 276.902344 257.269531 C 277.539062 257.035156 278.160156 256.765625 278.769531 256.464844 C 279.375 256.164062 279.964844 255.828125 280.535156 255.464844 C 281.105469 255.097656 281.65625 254.703125 282.183594 254.277344 C 282.710938 253.851562 283.214844 253.398438 283.695312 252.921875 C 284.171875 252.441406 284.625 251.9375 285.050781 251.410156 C 285.472656 250.878906 285.867188 250.332031 286.234375 249.757812 C 286.597656 249.1875 286.933594 248.597656 287.234375 247.992188 C 287.535156 247.382812 287.800781 246.761719 288.035156 246.125 C 288.269531 245.492188 288.46875 244.84375 288.632812 244.1875 C 288.796875 243.527344 288.925781 242.863281 289.015625 242.191406 C 289.109375 241.519531 289.164062 240.847656 289.183594 240.167969 C 289.203125 239.492188 289.1875 238.8125 289.132812 238.136719 C 289.078125 237.460938 288.988281 236.792969 288.859375 236.125 C 288.734375 235.460938 288.570312 234.804688 288.375 234.15625 C 288.175781 233.507812 287.945312 232.871094 287.675781 232.246094 C 287.410156 231.625 287.109375 231.015625 286.777344 230.425781 C 286.445312 229.835938 286.082031 229.265625 285.6875 228.710938 C 285.292969 228.160156 284.871094 227.632812 284.421875 227.125 C 283.96875 226.621094 283.492188 226.140625 282.988281 225.6875 C 282.484375 225.234375 281.960938 224.808594 281.410156 224.410156 C 280.859375 224.011719 280.292969 223.644531 279.703125 223.3125 C 279.113281 222.976562 278.507812 222.671875 277.886719 222.402344 C 277.265625 222.132812 276.628906 221.898438 275.984375 221.695312 C 275.121094 219.804688 274.132812 217.984375 273.011719 216.238281 C 271.894531 214.488281 270.652344 212.828125 269.296875 211.257812 C 267.9375 209.6875 266.476562 208.222656 264.910156 206.859375 C 263.339844 205.5 261.683594 204.253906 259.941406 203.128906 C 258.195312 202.007812 256.378906 201.011719 254.488281 200.148438 C 252.601562 199.28125 250.664062 198.554688 248.671875 197.96875 C 246.679688 197.382812 244.65625 196.941406 242.601562 196.644531 C 240.546875 196.347656 238.480469 196.195312 236.402344 196.195312 L 138.558594 196.195312 C 136.566406 196.195312 134.582031 196.097656 132.597656 195.902344 C 130.617188 195.707031 128.648438 195.414062 126.695312 195.027344 C 124.742188 194.636719 122.8125 194.152344 120.90625 193.574219 C 119 192.996094 117.128906 192.328125 115.289062 191.566406 C 113.449219 190.804688 111.652344 189.953125 109.894531 189.015625 C 108.136719 188.074219 106.433594 187.050781 104.777344 185.945312 C 103.121094 184.839844 101.523438 183.65625 99.984375 182.390625 C 98.441406 181.128906 96.96875 179.792969 95.5625 178.382812 C 94.152344 176.976562 92.816406 175.5 91.554688 173.960938 C 90.289062 172.421875 89.105469 170.824219 88 169.167969 C 86.890625 167.511719 85.871094 165.808594 84.929688 164.050781 C 83.992188 162.292969 83.140625 160.496094 82.378906 158.65625 C 81.617188 156.816406 80.945312 154.941406 80.367188 153.035156 C 79.789062 151.132812 79.308594 149.203125 78.917969 147.25 C 78.53125 145.296875 78.238281 143.328125 78.042969 141.34375 C 77.847656 139.363281 77.75 137.375 77.75 135.386719 C 77.75 133.394531 77.847656 131.40625 78.042969 129.425781 C 78.238281 127.441406 78.53125 125.476562 78.917969 123.523438 C 79.308594 121.566406 79.789062 119.640625 80.367188 117.734375 C 80.945312 115.828125 81.617188 113.953125 82.378906 112.113281 C 83.140625 110.273438 83.992188 108.476562 84.929688 106.71875 C 85.871094 104.964844 86.890625 103.257812 88 101.601562 C 89.105469 99.945312 90.289062 98.347656 91.554688 96.808594 C 92.816406 95.269531 94.152344 93.792969 95.5625 92.386719 C 96.96875 90.976562 98.441406 89.640625 99.984375 88.378906 C 101.523438 87.113281 103.121094 85.929688 104.777344 84.824219 C 106.433594 83.71875 108.136719 82.695312 109.894531 81.753906 C 111.652344 80.816406 113.449219 79.964844 115.289062 79.203125 C 117.128906 78.441406 119 77.773438 120.90625 77.195312 C 122.8125 76.617188 124.742188 76.132812 126.695312 75.742188 C 128.648438 75.355469 130.617188 75.0625 132.597656 74.867188 C 134.582031 74.671875 136.566406 74.574219 138.558594 74.574219 L 215.519531 74.574219 C 215.863281 75.164062 216.238281 75.734375 216.644531 76.28125 C 217.050781 76.832031 217.488281 77.355469 217.953125 77.859375 C 218.414062 78.359375 218.90625 78.835938 219.417969 79.28125 C 219.933594 79.730469 220.472656 80.148438 221.035156 80.539062 C 221.59375 80.929688 222.175781 81.285156 222.777344 81.613281 C 223.375 81.9375 223.992188 82.230469 224.625 82.488281 C 225.253906 82.75 225.898438 82.972656 226.554688 83.160156 C 227.210938 83.347656 227.878906 83.503906 228.550781 83.617188 C 229.222656 83.734375 229.898438 83.8125 230.582031 83.855469 C 231.261719 83.898438 231.945312 83.90625 232.628906 83.871094 C 233.308594 83.839844 233.988281 83.773438 234.664062 83.667969 C 235.335938 83.5625 236.003906 83.417969 236.664062 83.238281 C 237.324219 83.0625 237.96875 82.847656 238.605469 82.597656 C 239.242188 82.351562 239.863281 82.066406 240.46875 81.75 C 241.074219 81.433594 241.660156 81.085938 242.226562 80.707031 C 242.792969 80.324219 243.335938 79.914062 243.859375 79.476562 C 244.382812 79.035156 244.878906 78.566406 245.351562 78.074219 C 245.824219 77.578125 246.265625 77.0625 246.679688 76.519531 C 247.09375 75.976562 247.480469 75.414062 247.832031 74.828125 C 248.1875 74.246094 248.507812 73.644531 248.796875 73.023438 C 249.085938 72.40625 249.339844 71.773438 249.558594 71.125 C 249.777344 70.480469 249.960938 69.824219 250.105469 69.15625 C 250.253906 68.488281 250.367188 67.816406 250.441406 67.136719 C 250.515625 66.457031 250.550781 65.777344 250.550781 65.09375 C 250.550781 64.410156 250.515625 63.730469 250.441406 63.050781 C 250.367188 62.371094 250.253906 61.699219 250.105469 61.035156 C 249.960938 60.367188 249.777344 59.710938 249.558594 59.0625 C 249.339844 58.417969 249.085938 57.785156 248.796875 57.164062 C 248.507812 56.542969 248.1875 55.941406 247.832031 55.359375 C 247.480469 54.773438 247.09375 54.210938 246.679688 53.667969 C 246.265625 53.128906 245.824219 52.609375 245.351562 52.113281 C 244.878906 51.621094 244.382812 51.152344 243.859375 50.714844 C 243.335938 50.273438 242.792969 49.863281 242.226562 49.484375 C 241.660156 49.101562 241.074219 48.753906 240.46875 48.4375 C 239.863281 48.121094 239.242188 47.839844 238.605469 47.589844 C 237.96875 47.339844 237.324219 47.128906 236.664062 46.949219 C 236.003906 46.769531 235.335938 46.628906 234.664062 46.523438 C 233.988281 46.417969 233.308594 46.347656 232.628906 46.316406 C 231.945312 46.285156 231.261719 46.289062 230.582031 46.332031 C 229.898438 46.375 229.222656 46.453125 228.550781 46.570312 C 227.878906 46.6875 227.210938 46.839844 226.554688 47.027344 C 225.898438 47.21875 225.253906 47.441406 224.625 47.699219 C 223.992188 47.957031 223.375 48.25 222.777344 48.578125 C 222.175781 48.902344 221.59375 49.261719 221.035156 49.652344 C 220.472656 50.039062 219.933594 50.457031 219.417969 50.90625 C 218.90625 51.355469 218.414062 51.828125 217.953125 52.332031 C 217.488281 52.832031 217.050781 53.355469 216.644531 53.90625 C 216.238281 54.453125 215.863281 55.023438 215.519531 55.613281 L 138.558594 55.613281 C 137.253906 55.613281 135.949219 55.644531 134.644531 55.710938 C 133.339844 55.773438 132.035156 55.871094 130.738281 55.996094 C 129.4375 56.125 128.140625 56.285156 126.847656 56.476562 C 125.558594 56.667969 124.269531 56.890625 122.988281 57.148438 C 121.707031 57.402344 120.433594 57.6875 119.167969 58.003906 C 117.898438 58.324219 116.640625 58.671875 115.390625 59.050781 C 114.140625 59.429688 112.902344 59.839844 111.671875 60.277344 C 110.441406 60.71875 109.222656 61.1875 108.015625 61.6875 C 106.8125 62.1875 105.617188 62.71875 104.4375 63.277344 C 103.253906 63.835938 102.089844 64.421875 100.9375 65.039062 C 99.785156 65.652344 98.648438 66.296875 97.527344 66.96875 C 96.410156 67.640625 95.304688 68.339844 94.21875 69.0625 C 93.132812 69.789062 92.066406 70.542969 91.015625 71.320312 C 89.96875 72.097656 88.9375 72.902344 87.929688 73.730469 C 86.917969 74.558594 85.929688 75.410156 84.960938 76.289062 C 83.996094 77.164062 83.046875 78.066406 82.125 78.988281 C 81.203125 79.914062 80.300781 80.859375 79.425781 81.828125 C 78.546875 82.792969 77.695312 83.78125 76.863281 84.792969 C 76.035156 85.800781 75.234375 86.832031 74.457031 87.882812 C 73.675781 88.929688 72.925781 89.996094 72.199219 91.082031 C 71.472656 92.167969 70.773438 93.273438 70.105469 94.394531 C 69.433594 95.511719 68.789062 96.648438 68.171875 97.800781 C 67.558594 98.953125 66.96875 100.121094 66.410156 101.300781 C 65.851562 102.480469 65.324219 103.675781 64.824219 104.882812 C 64.324219 106.089844 63.855469 107.308594 63.414062 108.535156 C 62.972656 109.765625 62.566406 111.007812 62.1875 112.257812 C 61.804688 113.507812 61.457031 114.765625 61.140625 116.03125 C 60.824219 117.296875 60.539062 118.574219 60.28125 119.855469 C 60.027344 121.136719 59.804688 122.421875 59.613281 123.714844 C 59.421875 125.003906 59.261719 126.300781 59.132812 127.601562 C 59.003906 128.902344 58.910156 130.203125 58.84375 131.507812 C 58.78125 132.8125 58.75 134.117188 58.75 135.425781 C 58.75 136.730469 58.78125 138.035156 58.84375 139.339844 C 58.910156 140.644531 59.003906 141.945312 59.132812 143.246094 C 59.261719 144.546875 59.421875 145.84375 59.613281 147.136719 C 59.804688 148.425781 60.027344 149.714844 60.28125 150.996094 C 60.539062 152.277344 60.824219 153.550781 61.140625 154.816406 C 61.457031 156.082031 61.804688 157.34375 62.1875 158.59375 C 62.566406 159.84375 62.972656 161.082031 63.414062 162.3125 C 63.855469 163.542969 64.324219 164.757812 64.824219 165.964844 C 65.324219 167.171875 65.851562 168.367188 66.410156 169.546875 C 66.96875 170.726562 67.558594 171.894531 68.171875 173.046875 C 68.789062 174.199219 69.433594 175.335938 70.105469 176.457031 C 70.773438 177.574219 71.472656 178.679688 72.199219 179.765625 C 72.925781 180.851562 73.675781 181.917969 74.457031 182.96875 C 75.234375 184.015625 76.035156 185.046875 76.863281 186.054688 C 77.695312 187.066406 78.546875 188.054688 79.425781 189.023438 C 80.300781 189.988281 81.203125 190.933594 82.125 191.859375 C 83.046875 192.78125 83.996094 193.683594 84.960938 194.558594 C 85.929688 195.4375 86.917969 196.289062 87.929688 197.117188 C 88.9375 197.949219 89.96875 198.75 91.015625 199.527344 C 92.066406 200.308594 93.132812 201.058594 94.21875 201.785156 C 95.304688 202.511719 96.410156 203.207031 97.527344 203.878906 C 98.648438 204.550781 99.785156 205.195312 100.9375 205.8125 C 102.089844 206.425781 103.253906 207.015625 104.4375 207.574219 C 105.617188 208.128906 106.8125 208.660156 108.015625 209.160156 C 109.222656 209.660156 110.441406 210.128906 111.671875 210.570312 C 112.902344 211.007812 114.140625 211.417969 115.390625 211.796875 C 116.640625 212.175781 117.898438 212.527344 119.167969 212.84375 C 120.433594 213.160156 121.707031 213.445312 122.988281 213.703125 C 124.269531 213.957031 125.558594 214.179688 126.847656 214.371094 C 128.140625 214.5625 129.4375 214.722656 130.738281 214.851562 C 132.035156 214.980469 133.339844 215.074219 134.644531 215.140625 C 135.949219 215.203125 137.253906 215.234375 138.558594 215.234375 Z M 138.558594 215.164062 " fill-opacity="1" fill-rule="nonzero"/></g><path fill="#8c52ff" d="M 154.835938 91.875 C 154.492188 91.285156 154.121094 90.714844 153.71875 90.164062 C 153.3125 89.613281 152.882812 89.085938 152.421875 88.582031 C 151.960938 88.078125 151.472656 87.597656 150.960938 87.148438 C 150.449219 86.699219 149.910156 86.277344 149.351562 85.882812 C 148.792969 85.492188 148.214844 85.128906 147.617188 84.800781 C 147.019531 84.472656 146.40625 84.175781 145.773438 83.914062 C 145.144531 83.652344 144.5 83.421875 143.84375 83.230469 C 143.191406 83.039062 142.527344 82.882812 141.855469 82.761719 C 141.183594 82.640625 140.503906 82.558594 139.824219 82.511719 C 139.140625 82.464844 138.460938 82.457031 137.777344 82.484375 C 137.097656 82.511719 136.417969 82.578125 135.742188 82.679688 C 135.066406 82.78125 134.398438 82.921875 133.738281 83.09375 C 133.078125 83.269531 132.429688 83.480469 131.792969 83.726562 C 131.15625 83.972656 130.535156 84.25 129.925781 84.5625 C 129.320312 84.878906 128.730469 85.222656 128.164062 85.601562 C 127.59375 85.976562 127.046875 86.382812 126.523438 86.820312 C 125.996094 87.257812 125.496094 87.722656 125.023438 88.214844 C 124.550781 88.707031 124.101562 89.222656 123.683594 89.761719 C 123.265625 90.300781 122.878906 90.863281 122.523438 91.445312 C 122.164062 92.027344 121.839844 92.625 121.550781 93.242188 C 121.257812 93.863281 121 94.492188 120.777344 95.140625 C 120.554688 95.785156 120.367188 96.441406 120.21875 97.105469 C 120.066406 97.773438 119.953125 98.445312 119.875 99.121094 C 119.796875 99.800781 119.753906 100.480469 119.75 101.164062 C 119.746094 101.847656 119.78125 102.527344 119.851562 103.207031 C 119.921875 103.886719 120.027344 104.558594 120.171875 105.226562 C 120.316406 105.894531 120.496094 106.554688 120.710938 107.203125 C 120.925781 107.847656 121.175781 108.484375 121.460938 109.105469 C 121.746094 109.726562 122.066406 110.328125 122.414062 110.914062 C 122.765625 111.5 123.148438 112.066406 123.558594 112.609375 C 123.972656 113.15625 124.410156 113.675781 124.878906 114.171875 C 125.347656 114.667969 125.84375 115.140625 126.363281 115.582031 C 126.882812 116.023438 127.425781 116.4375 127.992188 116.820312 C 128.554688 117.203125 129.140625 117.554688 129.742188 117.875 C 130.347656 118.195312 130.964844 118.480469 131.601562 118.734375 C 132.234375 118.988281 132.878906 119.203125 133.539062 119.386719 C 134.195312 119.570312 134.863281 119.714844 135.535156 119.824219 C 136.210938 119.933594 136.890625 120.003906 137.570312 120.042969 C 138.253906 120.078125 138.933594 120.074219 139.617188 120.035156 C 140.296875 119.996094 140.976562 119.921875 141.648438 119.808594 C 142.324219 119.695312 142.988281 119.546875 143.644531 119.363281 C 144.304688 119.179688 144.949219 118.957031 145.582031 118.703125 C 146.214844 118.445312 146.832031 118.15625 147.433594 117.835938 C 148.035156 117.511719 148.617188 117.15625 149.183594 116.769531 C 149.746094 116.386719 150.285156 115.96875 150.804688 115.523438 C 151.320312 115.078125 151.8125 114.605469 152.28125 114.109375 C 152.746094 113.609375 153.183594 113.085938 153.59375 112.539062 C 154.003906 111.992188 154.382812 111.425781 154.730469 110.839844 L 274.054688 110.839844 C 274.402344 111.425781 274.78125 111.992188 275.191406 112.539062 C 275.597656 113.085938 276.035156 113.609375 276.503906 114.109375 C 276.96875 114.605469 277.460938 115.078125 277.980469 115.523438 C 278.496094 115.96875 279.039062 116.386719 279.601562 116.769531 C 280.164062 117.15625 280.746094 117.511719 281.347656 117.835938 C 281.949219 118.15625 282.566406 118.445312 283.203125 118.703125 C 283.835938 118.957031 284.480469 119.179688 285.136719 119.363281 C 285.792969 119.546875 286.460938 119.695312 287.132812 119.808594 C 287.808594 119.921875 288.484375 119.996094 289.167969 120.035156 C 289.847656 120.074219 290.53125 120.078125 291.210938 120.042969 C 291.894531 120.003906 292.574219 119.933594 293.246094 119.824219 C 293.921875 119.714844 294.585938 119.570312 295.246094 119.386719 C 295.902344 119.203125 296.550781 118.988281 297.183594 118.734375 C 297.820312 118.480469 298.4375 118.195312 299.039062 117.875 C 299.644531 117.554688 300.226562 117.203125 300.792969 116.820312 C 301.359375 116.4375 301.902344 116.023438 302.421875 115.582031 C 302.941406 115.140625 303.433594 114.667969 303.902344 114.171875 C 304.371094 113.675781 304.8125 113.15625 305.226562 112.609375 C 305.636719 112.066406 306.019531 111.5 306.367188 110.914062 C 306.71875 110.328125 307.035156 109.726562 307.320312 109.105469 C 307.605469 108.484375 307.855469 107.847656 308.070312 107.203125 C 308.285156 106.554688 308.464844 105.894531 308.609375 105.226562 C 308.753906 104.558594 308.863281 103.886719 308.933594 103.207031 C 309.003906 102.527344 309.035156 101.847656 309.03125 101.164062 C 309.027344 100.480469 308.988281 99.800781 308.910156 99.121094 C 308.832031 98.445312 308.71875 97.773438 308.566406 97.105469 C 308.414062 96.441406 308.226562 95.785156 308.003906 95.140625 C 307.78125 94.492188 307.523438 93.863281 307.234375 93.242188 C 306.941406 92.625 306.617188 92.027344 306.261719 91.445312 C 305.90625 90.863281 305.515625 90.300781 305.097656 89.761719 C 304.679688 89.222656 304.234375 88.707031 303.761719 88.214844 C 303.285156 87.722656 302.785156 87.257812 302.261719 86.820312 C 301.738281 86.382812 301.191406 85.976562 300.621094 85.601562 C 300.050781 85.222656 299.464844 84.878906 298.855469 84.5625 C 298.25 84.25 297.628906 83.972656 296.992188 83.726562 C 296.355469 83.480469 295.703125 83.269531 295.042969 83.09375 C 294.382812 82.921875 293.71875 82.78125 293.042969 82.679688 C 292.367188 82.578125 291.6875 82.511719 291.003906 82.484375 C 290.324219 82.457031 289.640625 82.464844 288.960938 82.511719 C 288.277344 82.558594 287.601562 82.640625 286.929688 82.761719 C 286.257812 82.882812 285.59375 83.039062 284.9375 83.230469 C 284.28125 83.421875 283.640625 83.652344 283.007812 83.914062 C 282.378906 84.175781 281.765625 84.472656 281.167969 84.800781 C 280.570312 85.128906 279.988281 85.492188 279.429688 85.882812 C 278.871094 86.277344 278.335938 86.699219 277.824219 87.148438 C 277.308594 87.597656 276.824219 88.078125 276.363281 88.582031 C 275.902344 89.085938 275.46875 89.613281 275.066406 90.164062 C 274.664062 90.714844 274.289062 91.285156 273.949219 91.875 Z M 154.835938 91.875 " fill-opacity="1" fill-rule="nonzero"/><g clip-path="url(#ade51ae0e5)"><path fill="#8c52ff" d="M 236.421875 159.832031 L 138.558594 159.832031 C 136.507812 159.832031 134.488281 159.578125 132.503906 159.066406 C 130.515625 158.558594 128.621094 157.8125 126.824219 156.824219 C 125.023438 155.839844 123.375 154.648438 121.875 153.246094 C 120.378906 151.847656 119.074219 150.28125 117.96875 148.554688 C 118.445312 148.070312 118.894531 147.5625 119.316406 147.03125 C 119.738281 146.503906 120.128906 145.949219 120.488281 145.375 C 120.851562 144.804688 121.179688 144.210938 121.476562 143.601562 C 121.773438 142.992188 122.039062 142.371094 122.269531 141.730469 C 122.5 141.09375 122.691406 140.445312 122.851562 139.789062 C 123.011719 139.128906 123.136719 138.464844 123.222656 137.792969 C 123.3125 137.117188 123.363281 136.445312 123.378906 135.765625 C 123.394531 135.089844 123.371094 134.410156 123.3125 133.738281 C 123.253906 133.0625 123.160156 132.390625 123.027344 131.726562 C 122.898438 131.0625 122.730469 130.40625 122.527344 129.757812 C 122.328125 129.109375 122.089844 128.476562 121.820312 127.855469 C 121.550781 127.234375 121.246094 126.628906 120.910156 126.039062 C 120.574219 125.449219 120.207031 124.882812 119.808594 124.332031 C 119.410156 123.785156 118.984375 123.257812 118.53125 122.753906 C 118.078125 122.253906 117.597656 121.777344 117.089844 121.324219 C 116.582031 120.875 116.054688 120.453125 115.503906 120.058594 C 114.949219 119.664062 114.378906 119.300781 113.789062 118.96875 C 113.199219 118.636719 112.589844 118.339844 111.964844 118.074219 C 111.34375 117.808594 110.707031 117.574219 110.058594 117.378906 C 109.410156 117.179688 108.753906 117.019531 108.085938 116.894531 C 107.421875 116.765625 106.75 116.675781 106.074219 116.625 C 105.398438 116.570312 104.722656 116.554688 104.042969 116.574219 C 103.367188 116.59375 102.691406 116.648438 102.019531 116.742188 C 101.347656 116.835938 100.683594 116.964844 100.027344 117.128906 C 99.371094 117.292969 98.722656 117.492188 98.085938 117.726562 C 97.449219 117.960938 96.828125 118.230469 96.222656 118.53125 C 95.617188 118.832031 95.027344 119.167969 94.457031 119.53125 C 93.886719 119.898438 93.335938 120.292969 92.808594 120.71875 C 92.277344 121.144531 91.777344 121.597656 91.296875 122.074219 C 90.816406 122.554688 90.367188 123.058594 89.941406 123.585938 C 89.515625 124.117188 89.121094 124.664062 88.757812 125.238281 C 88.390625 125.808594 88.058594 126.398438 87.757812 127.003906 C 87.457031 127.613281 87.1875 128.234375 86.953125 128.871094 C 86.71875 129.503906 86.519531 130.152344 86.355469 130.808594 C 86.191406 131.46875 86.066406 132.132812 85.972656 132.804688 C 85.878906 133.476562 85.824219 134.148438 85.804688 134.828125 C 85.785156 135.503906 85.804688 136.183594 85.859375 136.859375 C 85.914062 137.535156 86.003906 138.203125 86.128906 138.871094 C 86.257812 139.535156 86.417969 140.191406 86.617188 140.839844 C 86.816406 141.488281 87.046875 142.125 87.3125 142.75 C 87.578125 143.371094 87.878906 143.980469 88.210938 144.570312 C 88.542969 145.160156 88.90625 145.730469 89.300781 146.285156 C 89.695312 146.835938 90.117188 147.363281 90.570312 147.871094 C 91.019531 148.375 91.5 148.855469 92 149.308594 C 92.503906 149.761719 93.03125 150.1875 93.582031 150.585938 C 94.128906 150.984375 94.699219 151.351562 95.289062 151.683594 C 95.875 152.019531 96.480469 152.324219 97.105469 152.59375 C 97.726562 152.863281 98.359375 153.097656 99.007812 153.300781 C 99.867188 155.191406 100.855469 157.011719 101.976562 158.757812 C 103.09375 160.507812 104.335938 162.167969 105.691406 163.738281 C 107.046875 165.308594 108.511719 166.773438 110.078125 168.136719 C 111.644531 169.496094 113.300781 170.742188 115.046875 171.867188 C 116.792969 172.992188 118.609375 173.984375 120.496094 174.847656 C 122.382812 175.714844 124.324219 176.441406 126.3125 177.027344 C 128.304688 177.613281 130.328125 178.054688 132.382812 178.351562 C 134.4375 178.652344 136.503906 178.800781 138.578125 178.800781 L 236.421875 178.800781 C 238.414062 178.800781 240.402344 178.898438 242.382812 179.09375 C 244.367188 179.289062 246.332031 179.582031 248.289062 179.96875 C 250.242188 180.359375 252.171875 180.84375 254.074219 181.421875 C 255.980469 182 257.855469 182.667969 259.695312 183.429688 C 261.535156 184.191406 263.332031 185.042969 265.089844 185.980469 C 266.84375 186.921875 268.550781 187.945312 270.207031 189.050781 C 271.863281 190.15625 273.460938 191.339844 275 192.605469 C 276.539062 193.867188 278.015625 195.203125 279.421875 196.613281 C 280.832031 198.019531 282.167969 199.496094 283.429688 201.035156 C 284.695312 202.574219 285.878906 204.171875 286.984375 205.828125 C 288.089844 207.484375 289.113281 209.1875 290.054688 210.945312 C 290.992188 212.703125 291.84375 214.5 292.605469 216.339844 C 293.367188 218.179688 294.035156 220.054688 294.613281 221.960938 C 295.191406 223.863281 295.675781 225.792969 296.066406 227.746094 C 296.453125 229.699219 296.746094 231.667969 296.941406 233.652344 C 297.136719 235.632812 297.234375 237.621094 297.234375 239.609375 C 297.234375 241.601562 297.136719 243.589844 296.941406 245.570312 C 296.746094 247.554688 296.453125 249.519531 296.066406 251.472656 C 295.675781 253.429688 295.191406 255.355469 294.613281 257.261719 C 294.035156 259.167969 293.367188 261.042969 292.605469 262.882812 C 291.84375 264.722656 290.992188 266.519531 290.054688 268.277344 C 289.113281 270.03125 288.089844 271.738281 286.984375 273.394531 C 285.878906 275.050781 284.695312 276.648438 283.429688 278.1875 C 282.167969 279.726562 280.832031 281.203125 279.421875 282.609375 C 278.015625 284.019531 276.539062 285.355469 275 286.617188 C 273.460938 287.878906 271.863281 289.066406 270.207031 290.171875 C 268.550781 291.277344 266.84375 292.300781 265.089844 293.238281 C 263.332031 294.179688 261.535156 295.03125 259.695312 295.792969 C 257.855469 296.554688 255.980469 297.222656 254.074219 297.800781 C 252.171875 298.378906 250.242188 298.863281 248.289062 299.253906 C 246.332031 299.640625 244.367188 299.933594 242.382812 300.128906 C 240.402344 300.324219 238.414062 300.421875 236.421875 300.421875 L 158.796875 300.421875 C 158.453125 299.832031 158.078125 299.261719 157.667969 298.714844 C 157.261719 298.167969 156.828125 297.640625 156.363281 297.140625 C 155.898438 296.640625 155.410156 296.167969 154.894531 295.71875 C 154.378906 295.273438 153.839844 294.855469 153.277344 294.464844 C 152.71875 294.078125 152.136719 293.71875 151.535156 293.394531 C 150.9375 293.066406 150.320312 292.777344 149.6875 292.519531 C 149.058594 292.257812 148.414062 292.035156 147.757812 291.847656 C 147.101562 291.660156 146.4375 291.507812 145.761719 291.390625 C 145.089844 291.277344 144.414062 291.195312 143.734375 291.15625 C 143.050781 291.113281 142.371094 291.109375 141.6875 291.140625 C 141.003906 291.171875 140.328125 291.242188 139.652344 291.347656 C 138.980469 291.453125 138.3125 291.597656 137.652344 291.773438 C 136.996094 291.953125 136.347656 292.167969 135.710938 292.417969 C 135.078125 292.664062 134.457031 292.949219 133.851562 293.265625 C 133.246094 293.582031 132.660156 293.929688 132.09375 294.3125 C 131.527344 294.691406 130.984375 295.101562 130.460938 295.542969 C 129.9375 295.980469 129.441406 296.449219 128.972656 296.941406 C 128.5 297.4375 128.058594 297.953125 127.644531 298.496094 C 127.226562 299.039062 126.84375 299.601562 126.492188 300.1875 C 126.136719 300.769531 125.816406 301.371094 125.527344 301.992188 C 125.242188 302.609375 124.988281 303.242188 124.769531 303.890625 C 124.550781 304.535156 124.367188 305.191406 124.21875 305.859375 C 124.070312 306.523438 123.960938 307.199219 123.886719 307.875 C 123.8125 308.554688 123.773438 309.234375 123.773438 309.917969 C 123.773438 310.601562 123.8125 311.28125 123.886719 311.960938 C 123.960938 312.636719 124.070312 313.3125 124.21875 313.976562 C 124.367188 314.644531 124.550781 315.300781 124.769531 315.945312 C 124.988281 316.59375 125.242188 317.226562 125.527344 317.84375 C 125.816406 318.464844 126.136719 319.066406 126.492188 319.648438 C 126.84375 320.234375 127.226562 320.796875 127.644531 321.339844 C 128.058594 321.882812 128.5 322.398438 128.972656 322.894531 C 129.441406 323.386719 129.9375 323.855469 130.460938 324.292969 C 130.984375 324.734375 131.527344 325.144531 132.09375 325.523438 C 132.660156 325.90625 133.246094 326.253906 133.851562 326.570312 C 134.457031 326.886719 135.078125 327.171875 135.710938 327.417969 C 136.347656 327.667969 136.996094 327.882812 137.652344 328.0625 C 138.3125 328.238281 138.980469 328.382812 139.652344 328.488281 C 140.328125 328.59375 141.007812 328.664062 141.6875 328.695312 C 142.371094 328.726562 143.050781 328.722656 143.734375 328.679688 C 144.414062 328.640625 145.089844 328.558594 145.761719 328.445312 C 146.4375 328.328125 147.101562 328.175781 147.757812 327.988281 C 148.414062 327.800781 149.058594 327.578125 149.6875 327.316406 C 150.320312 327.058594 150.9375 326.769531 151.535156 326.441406 C 152.136719 326.117188 152.71875 325.757812 153.277344 325.371094 C 153.839844 324.980469 154.378906 324.5625 154.894531 324.117188 C 155.410156 323.667969 155.898438 323.195312 156.363281 322.695312 C 156.828125 322.195312 157.261719 321.667969 157.667969 321.121094 C 158.078125 320.574219 158.453125 320.003906 158.796875 319.414062 L 236.421875 319.414062 C 237.730469 319.414062 239.035156 319.382812 240.339844 319.320312 C 241.644531 319.253906 242.945312 319.160156 244.246094 319.03125 C 245.546875 318.902344 246.84375 318.742188 248.132812 318.550781 C 249.425781 318.359375 250.714844 318.136719 251.992188 317.882812 C 253.273438 317.625 254.550781 317.339844 255.816406 317.023438 C 257.082031 316.707031 258.339844 316.359375 259.589844 315.980469 C 260.839844 315.597656 262.082031 315.191406 263.3125 314.75 C 264.542969 314.308594 265.757812 313.839844 266.964844 313.339844 C 268.171875 312.839844 269.367188 312.3125 270.546875 311.753906 C 271.726562 311.195312 272.894531 310.605469 274.046875 309.992188 C 275.199219 309.375 276.335938 308.730469 277.453125 308.058594 C 278.574219 307.390625 279.679688 306.691406 280.765625 305.964844 C 281.851562 305.238281 282.917969 304.488281 283.96875 303.710938 C 285.015625 302.929688 286.046875 302.128906 287.054688 301.300781 C 288.066406 300.46875 289.054688 299.617188 290.019531 298.742188 C 290.988281 297.863281 291.933594 296.964844 292.859375 296.039062 C 293.78125 295.117188 294.683594 294.171875 295.558594 293.203125 C 296.4375 292.234375 297.289062 291.246094 298.117188 290.234375 C 298.945312 289.226562 299.75 288.195312 300.527344 287.148438 C 301.304688 286.097656 302.058594 285.03125 302.785156 283.945312 C 303.507812 282.859375 304.207031 281.753906 304.878906 280.636719 C 305.550781 279.515625 306.195312 278.378906 306.8125 277.226562 C 307.425781 276.074219 308.011719 274.910156 308.570312 273.726562 C 309.128906 272.546875 309.660156 271.355469 310.160156 270.148438 C 310.660156 268.941406 311.128906 267.722656 311.570312 266.492188 C 312.007812 265.261719 312.417969 264.023438 312.796875 262.773438 C 313.175781 261.523438 313.527344 260.265625 313.84375 258.996094 C 314.160156 257.730469 314.445312 256.457031 314.699219 255.175781 C 314.957031 253.894531 315.179688 252.605469 315.371094 251.316406 C 315.5625 250.023438 315.722656 248.726562 315.851562 247.425781 C 315.976562 246.128906 316.074219 244.824219 316.136719 243.519531 C 316.203125 242.214844 316.234375 240.910156 316.234375 239.605469 C 316.234375 238.296875 316.203125 236.992188 316.136719 235.6875 C 316.074219 234.382812 315.976562 233.082031 315.851562 231.78125 C 315.722656 230.480469 315.5625 229.1875 315.371094 227.894531 C 315.179688 226.601562 314.957031 225.316406 314.699219 224.035156 C 314.445312 222.753906 314.160156 221.480469 313.84375 220.210938 C 313.523438 218.945312 313.175781 217.6875 312.796875 216.4375 C 312.417969 215.1875 312.007812 213.945312 311.570312 212.71875 C 311.128906 211.488281 310.660156 210.269531 310.160156 209.0625 C 309.660156 207.855469 309.128906 206.660156 308.570312 205.480469 C 308.011719 204.300781 307.425781 203.132812 306.8125 201.980469 C 306.195312 200.828125 305.550781 199.695312 304.878906 198.574219 C 304.207031 197.453125 303.507812 196.351562 302.785156 195.265625 C 302.058594 194.179688 301.304688 193.109375 300.527344 192.0625 C 299.75 191.011719 298.945312 189.984375 298.117188 188.972656 C 297.289062 187.964844 296.4375 186.976562 295.558594 186.007812 C 294.683594 185.039062 293.78125 184.09375 292.859375 183.167969 C 291.933594 182.246094 290.988281 181.347656 290.019531 180.46875 C 289.054688 179.589844 288.066406 178.738281 287.054688 177.910156 C 286.046875 177.082031 285.015625 176.277344 283.96875 175.5 C 282.917969 174.722656 281.851562 173.96875 280.765625 173.246094 C 279.679688 172.519531 278.574219 171.820312 277.453125 171.148438 C 276.335938 170.476562 275.199219 169.832031 274.046875 169.21875 C 272.894531 168.601562 271.726562 168.015625 270.546875 167.457031 C 269.367188 166.898438 268.171875 166.367188 266.964844 165.867188 C 265.757812 165.367188 264.542969 164.898438 263.3125 164.460938 C 262.082031 164.019531 260.839844 163.609375 259.589844 163.230469 C 258.339844 162.851562 257.082031 162.503906 255.816406 162.1875 C 254.550781 161.867188 253.273438 161.582031 251.992188 161.328125 C 250.714844 161.074219 249.425781 160.847656 248.132812 160.65625 C 246.84375 160.464844 245.546875 160.304688 244.246094 160.179688 C 242.945312 160.050781 241.644531 159.953125 240.339844 159.890625 C 239.035156 159.824219 237.730469 159.792969 236.421875 159.792969 Z M 236.421875 159.832031 " fill-opacity="1" fill-rule="nonzero"/></g><path fill="#ecf0f1" d="M 220.203125 283.121094 C 220.546875 283.710938 220.921875 284.277344 221.328125 284.828125 C 221.734375 285.378906 222.167969 285.902344 222.632812 286.402344 C 223.097656 286.90625 223.585938 287.378906 224.101562 287.828125 C 224.617188 288.277344 225.15625 288.695312 225.71875 289.085938 C 226.277344 289.476562 226.859375 289.832031 227.460938 290.160156 C 228.058594 290.484375 228.675781 290.777344 229.308594 291.039062 C 229.941406 291.296875 230.585938 291.519531 231.242188 291.710938 C 231.898438 291.898438 232.5625 292.050781 233.234375 292.167969 C 233.910156 292.285156 234.585938 292.363281 235.269531 292.40625 C 235.949219 292.449219 236.632812 292.453125 237.316406 292.421875 C 237.996094 292.390625 238.675781 292.324219 239.351562 292.21875 C 240.027344 292.109375 240.691406 291.96875 241.351562 291.789062 C 242.011719 291.613281 242.660156 291.398438 243.296875 291.148438 C 243.933594 290.902344 244.554688 290.617188 245.160156 290.300781 C 245.765625 289.984375 246.351562 289.636719 246.917969 289.253906 C 247.484375 288.875 248.03125 288.464844 248.550781 288.023438 C 249.074219 287.585938 249.574219 287.117188 250.042969 286.625 C 250.515625 286.128906 250.960938 285.609375 251.375 285.066406 C 251.789062 284.527344 252.175781 283.960938 252.527344 283.378906 C 252.882812 282.792969 253.203125 282.191406 253.492188 281.570312 C 253.78125 280.953125 254.035156 280.320312 254.253906 279.671875 C 254.472656 279.023438 254.65625 278.367188 254.800781 277.699219 C 254.949219 277.035156 255.0625 276.359375 255.136719 275.683594 C 255.210938 275.003906 255.246094 274.320312 255.246094 273.636719 C 255.246094 272.953125 255.210938 272.273438 255.136719 271.59375 C 255.0625 270.914062 254.949219 270.242188 254.800781 269.574219 C 254.65625 268.910156 254.472656 268.25 254.253906 267.605469 C 254.035156 266.957031 253.78125 266.324219 253.492188 265.703125 C 253.203125 265.085938 252.882812 264.484375 252.527344 263.898438 C 252.175781 263.3125 251.789062 262.75 251.375 262.207031 C 250.960938 261.664062 250.515625 261.148438 250.042969 260.652344 C 249.574219 260.160156 249.074219 259.691406 248.550781 259.253906 C 248.03125 258.8125 247.484375 258.402344 246.917969 258.019531 C 246.351562 257.640625 245.765625 257.292969 245.160156 256.976562 C 244.554688 256.660156 243.933594 256.375 243.296875 256.125 C 242.660156 255.878906 242.011719 255.664062 241.351562 255.484375 C 240.691406 255.308594 240.027344 255.164062 239.351562 255.058594 C 238.675781 254.953125 237.996094 254.886719 237.316406 254.851562 C 236.632812 254.820312 235.949219 254.828125 235.269531 254.871094 C 234.585938 254.914062 233.910156 254.992188 233.234375 255.109375 C 232.5625 255.226562 231.898438 255.378906 231.242188 255.566406 C 230.585938 255.753906 229.941406 255.980469 229.308594 256.238281 C 228.675781 256.496094 228.058594 256.789062 227.460938 257.117188 C 226.859375 257.441406 226.277344 257.800781 225.71875 258.191406 C 225.15625 258.582031 224.617188 259 224.101562 259.449219 C 223.585938 259.894531 223.097656 260.371094 222.632812 260.871094 C 222.167969 261.375 221.734375 261.898438 221.328125 262.449219 C 220.921875 262.996094 220.546875 263.566406 220.203125 264.15625 L 100.988281 264.15625 C 100.644531 263.566406 100.269531 263 99.863281 262.449219 C 99.457031 261.902344 99.019531 261.375 98.558594 260.875 C 98.09375 260.371094 97.605469 259.898438 97.089844 259.449219 C 96.574219 259.003906 96.035156 258.582031 95.472656 258.195312 C 94.914062 257.804688 94.332031 257.445312 93.730469 257.121094 C 93.132812 256.796875 92.515625 256.503906 91.882812 256.242188 C 91.253906 255.984375 90.609375 255.761719 89.953125 255.570312 C 89.296875 255.382812 88.632812 255.230469 87.957031 255.113281 C 87.285156 255 86.609375 254.917969 85.925781 254.875 C 85.246094 254.832031 84.5625 254.828125 83.882812 254.859375 C 83.199219 254.890625 82.519531 254.960938 81.847656 255.066406 C 81.171875 255.171875 80.503906 255.3125 79.84375 255.492188 C 79.1875 255.671875 78.539062 255.882812 77.902344 256.132812 C 77.265625 256.382812 76.644531 256.664062 76.039062 256.980469 C 75.4375 257.296875 74.851562 257.648438 74.28125 258.027344 C 73.714844 258.40625 73.171875 258.816406 72.648438 259.257812 C 72.125 259.699219 71.628906 260.164062 71.15625 260.660156 C 70.6875 261.152344 70.242188 261.671875 69.828125 262.214844 C 69.414062 262.753906 69.027344 263.320312 68.675781 263.902344 C 68.320312 264.488281 68 265.089844 67.710938 265.707031 C 67.425781 266.328125 67.171875 266.960938 66.953125 267.605469 C 66.730469 268.253906 66.550781 268.910156 66.402344 269.578125 C 66.253906 270.242188 66.144531 270.917969 66.070312 271.59375 C 65.996094 272.273438 65.957031 272.957031 65.957031 273.636719 C 65.957031 274.320312 65.996094 275.003906 66.070312 275.679688 C 66.144531 276.359375 66.253906 277.03125 66.402344 277.699219 C 66.550781 278.367188 66.730469 279.023438 66.953125 279.667969 C 67.171875 280.316406 67.425781 280.949219 67.710938 281.570312 C 68 282.1875 68.320312 282.789062 68.675781 283.375 C 69.027344 283.957031 69.414062 284.519531 69.828125 285.0625 C 70.242188 285.605469 70.6875 286.125 71.15625 286.617188 C 71.628906 287.113281 72.125 287.578125 72.648438 288.019531 C 73.171875 288.457031 73.714844 288.867188 74.28125 289.25 C 74.851562 289.628906 75.4375 289.976562 76.039062 290.292969 C 76.644531 290.609375 77.265625 290.894531 77.902344 291.144531 C 78.539062 291.390625 79.1875 291.605469 79.84375 291.785156 C 80.503906 291.960938 81.171875 292.105469 81.847656 292.210938 C 82.519531 292.316406 83.199219 292.382812 83.882812 292.417969 C 84.5625 292.449219 85.246094 292.441406 85.925781 292.402344 C 86.609375 292.359375 87.285156 292.277344 87.957031 292.164062 C 88.632812 292.046875 89.296875 291.894531 89.953125 291.703125 C 90.609375 291.515625 91.253906 291.292969 91.882812 291.03125 C 92.515625 290.773438 93.132812 290.480469 93.730469 290.15625 C 94.332031 289.828125 94.914062 289.472656 95.472656 289.082031 C 96.035156 288.691406 96.574219 288.273438 97.089844 287.828125 C 97.605469 287.378906 98.09375 286.902344 98.558594 286.402344 C 99.019531 285.902344 99.457031 285.375 99.863281 284.828125 C 100.269531 284.277344 100.644531 283.710938 100.988281 283.121094 Z M 220.203125 283.121094 " fill-opacity="1" fill-rule="nonzero"/></svg>