<svg xmlns="http://www.w3.org/2000/svg" xmlns:xlink="http://www.w3.org/1999/xlink" width="1000" zoomAndPan="magnify" viewBox="0 0 750 225" height="300" preserveAspectRatio="xMidYMid meet" version="1.0"><defs><g/><clipPath id="a55fc6fbeb"><rect x="0" width="495" y="0" height="87"/></clipPath><clipPath id="0e3fafbd85"><rect x="0" width="149" y="0" height="85"/></clipPath><clipPath id="a9891f4da3"><path d="M 19.351562 17.25 L 175 17.25 L 175 161 L 19.351562 161 Z M 19.351562 17.25 " clip-rule="nonzero"/></clipPath><clipPath id="ef7f7325fc"><path d="M 37 64 L 193.351562 64 L 193.351562 207.75 L 37 207.75 Z M 37 64 " clip-rule="nonzero"/></clipPath></defs><g transform="matrix(1, 0, 0, 1, 220, 57)"><g clip-path="url(#a55fc6fbeb)"><g fill="#2b2b2b" fill-opacity="1"><g transform="translate(0.587076, 70.748374)"><g><path d="M 5.984375 -1.078125 L 5.984375 -2.34375 C 5.984375 -3.0625 5.625 -3.421875 4.90625 -3.421875 L 3.65625 -3.421875 C 2.925781 -3.421875 2.5625 -3.78125 2.5625 -4.5 L 2.5625 -14.3125 C 2.5625 -15.03125 2.925781 -15.390625 3.65625 -15.390625 L 16.875 -15.390625 C 17.601562 -15.390625 17.96875 -15.03125 17.96875 -14.3125 L 17.96875 -4.5 C 17.96875 -3.78125 18.328125 -3.421875 19.046875 -3.421875 L 20.296875 -3.421875 C 21.023438 -3.421875 21.390625 -3.78125 21.390625 -4.5 L 21.390625 -5.765625 C 21.390625 -6.484375 21.75 -6.84375 22.46875 -6.84375 L 24.359375 -6.84375 C 25.078125 -6.84375 25.4375 -7.203125 25.4375 -7.921875 L 25.4375 -21.5 C 25.4375 -22.21875 25.078125 -22.578125 24.359375 -22.578125 L 23.09375 -22.578125 C 22.375 -22.578125 22.015625 -22.941406 22.015625 -23.671875 L 22.015625 -24.921875 C 22.015625 -25.640625 21.65625 -26 20.9375 -26 L 11.125 -26 C 10.394531 -26 10.03125 -26.363281 10.03125 -27.09375 L 10.03125 -28.34375 C 10.03125 -29.0625 9.671875 -29.421875 8.953125 -29.421875 L 7.703125 -29.421875 C 6.972656 -29.421875 6.609375 -29.785156 6.609375 -30.515625 L 6.609375 -31.703125 C 6.609375 -32.460938 6.226562 -32.84375 5.46875 -32.84375 L 4.328125 -32.84375 C 3.566406 -32.84375 3.1875 -33.222656 3.1875 -33.984375 L 3.1875 -45.390625 C 3.1875 -46.148438 3.566406 -46.53125 4.328125 -46.53125 L 5.46875 -46.53125 C 6.226562 -46.53125 6.609375 -46.910156 6.609375 -47.671875 L 6.609375 -48.875 C 6.609375 -49.59375 6.972656 -49.953125 7.703125 -49.953125 L 8.953125 -49.953125 C 9.671875 -49.953125 10.03125 -50.316406 10.03125 -51.046875 L 10.03125 -52.296875 C 10.03125 -53.015625 10.394531 -53.375 11.125 -53.375 L 32.34375 -53.375 C 33.0625 -53.375 33.421875 -53.015625 33.421875 -52.296875 L 33.421875 -51.046875 C 33.421875 -50.316406 33.78125 -49.953125 34.5 -49.953125 L 38.609375 -49.953125 C 39.328125 -49.953125 39.6875 -49.59375 39.6875 -48.875 L 39.6875 -39.0625 C 39.6875 -38.34375 39.328125 -37.984375 38.609375 -37.984375 L 29.9375 -37.984375 C 29.21875 -37.984375 28.859375 -38.34375 28.859375 -39.0625 L 28.859375 -40.328125 C 28.859375 -41.046875 28.5 -41.40625 27.78125 -41.40625 L 26.515625 -41.40625 C 25.796875 -41.40625 25.4375 -41.765625 25.4375 -42.484375 L 25.4375 -48.875 C 25.4375 -49.59375 25.078125 -49.953125 24.359375 -49.953125 L 23.09375 -49.953125 C 22.375 -49.953125 22.015625 -49.59375 22.015625 -48.875 L 22.015625 -47.625 C 22.015625 -46.894531 21.65625 -46.53125 20.9375 -46.53125 L 19.671875 -46.53125 C 18.953125 -46.53125 18.59375 -46.171875 18.59375 -45.453125 L 18.59375 -33.9375 C 18.59375 -33.207031 18.953125 -32.84375 19.671875 -32.84375 L 21.5 -32.84375 C 22.21875 -32.84375 22.578125 -32.484375 22.578125 -31.765625 L 22.578125 -30.515625 C 22.578125 -29.785156 22.941406 -29.421875 23.671875 -29.421875 L 32.90625 -29.421875 C 33.625 -29.421875 33.984375 -29.0625 33.984375 -28.34375 L 33.984375 -27.09375 C 33.984375 -26.363281 34.347656 -26 35.078125 -26 L 36.328125 -26 C 37.046875 -26 37.40625 -25.640625 37.40625 -24.921875 L 37.40625 -23.71875 C 37.40625 -22.957031 37.785156 -22.578125 38.546875 -22.578125 L 39.6875 -22.578125 C 40.445312 -22.578125 40.828125 -22.195312 40.828125 -21.4375 L 40.828125 -7.984375 C 40.828125 -7.222656 40.445312 -6.84375 39.6875 -6.84375 L 38.546875 -6.84375 C 37.785156 -6.84375 37.40625 -6.460938 37.40625 -5.703125 L 37.40625 -4.5 C 37.40625 -3.78125 37.046875 -3.421875 36.328125 -3.421875 L 35.078125 -3.421875 C 34.347656 -3.421875 33.984375 -3.0625 33.984375 -2.34375 L 33.984375 -1.078125 C 33.984375 -0.359375 33.644531 0 32.96875 0 L 7.015625 0 C 6.328125 0 5.984375 -0.359375 5.984375 -1.078125 Z M 5.984375 -1.078125 "/></g></g></g><g fill="#2b2b2b" fill-opacity="1"><g transform="translate(55.500633, 70.748374)"><g><path d="M 3.984375 -1.078125 L 3.984375 -52.296875 C 3.984375 -53.015625 4.347656 -53.375 5.078125 -53.375 L 18.3125 -53.375 C 19.03125 -53.375 19.390625 -53.015625 19.390625 -52.296875 L 19.390625 -1.078125 C 19.390625 -0.359375 19.03125 0 18.3125 0 L 5.078125 0 C 4.347656 0 3.984375 -0.359375 3.984375 -1.078125 Z M 21.390625 -68.09375 L 21.390625 -64.671875 C 21.390625 -63.953125 21.023438 -63.59375 20.296875 -63.59375 L 9.8125 -63.59375 C 9.082031 -63.59375 8.71875 -63.226562 8.71875 -62.5 L 8.71875 -59.078125 C 8.71875 -58.128906 8.242188 -57.65625 7.296875 -57.65625 L 3.421875 -57.65625 C 2.472656 -57.65625 2 -58.128906 2 -59.078125 L 2 -62.5 C 2 -63.226562 2.359375 -63.59375 3.078125 -63.59375 L 6.15625 -63.59375 C 6.882812 -63.59375 7.25 -63.953125 7.25 -64.671875 L 7.25 -68.09375 C 7.25 -68.8125 7.609375 -69.171875 8.328125 -69.171875 L 20.296875 -69.171875 C 21.023438 -69.171875 21.390625 -68.8125 21.390625 -68.09375 Z M 21.390625 -68.09375 "/></g></g></g><g fill="#2b2b2b" fill-opacity="1"><g transform="translate(89.829784, 70.748374)"><g><path d="M 15.453125 -1.078125 L 15.453125 -48.9375 C 15.453125 -49.65625 15.09375 -50.015625 14.375 -50.015625 L 13.0625 -50.015625 C 12.332031 -50.015625 11.96875 -49.65625 11.96875 -48.9375 L 11.96875 -42.484375 C 11.96875 -41.765625 11.609375 -41.40625 10.890625 -41.40625 L 9.640625 -41.40625 C 8.910156 -41.40625 8.546875 -41.046875 8.546875 -40.328125 L 8.546875 -39.0625 C 8.546875 -38.34375 8.1875 -37.984375 7.46875 -37.984375 L 2.796875 -37.984375 C 2.066406 -37.984375 1.703125 -38.34375 1.703125 -39.0625 L 1.703125 -52.296875 C 1.703125 -53.015625 2.066406 -53.375 2.796875 -53.375 L 43.515625 -53.375 C 44.234375 -53.375 44.59375 -53.015625 44.59375 -52.296875 L 44.59375 -39.0625 C 44.59375 -38.34375 44.234375 -37.984375 43.515625 -37.984375 L 38.84375 -37.984375 C 38.113281 -37.984375 37.75 -38.34375 37.75 -39.0625 L 37.75 -40.328125 C 37.75 -41.046875 37.390625 -41.40625 36.671875 -41.40625 L 35.421875 -41.40625 C 34.691406 -41.40625 34.328125 -41.765625 34.328125 -42.484375 L 34.328125 -48.9375 C 34.328125 -49.65625 33.96875 -50.015625 33.25 -50.015625 L 31.9375 -50.015625 C 31.21875 -50.015625 30.859375 -49.65625 30.859375 -48.9375 L 30.859375 -1.078125 C 30.859375 -0.359375 30.492188 0 29.765625 0 L 16.53125 0 C 15.8125 0 15.453125 -0.359375 15.453125 -1.078125 Z M 15.453125 -1.078125 "/></g></g></g><g fill="#2b2b2b" fill-opacity="1"><g transform="translate(147.081167, 70.748374)"><g><path d="M 3.984375 -1.078125 L 3.984375 -38.609375 C 3.984375 -39.328125 4.347656 -39.6875 5.078125 -39.6875 L 6.953125 -39.6875 C 7.679688 -39.6875 8.046875 -40.050781 8.046875 -40.78125 L 8.046875 -42.03125 C 8.046875 -42.75 8.40625 -43.109375 9.125 -43.109375 L 10.375 -43.109375 C 11.101562 -43.109375 11.46875 -43.472656 11.46875 -44.203125 L 11.46875 -45.453125 C 11.46875 -46.171875 11.828125 -46.53125 12.546875 -46.53125 L 13.796875 -46.53125 C 14.523438 -46.53125 14.890625 -46.894531 14.890625 -47.625 L 14.890625 -48.875 C 14.890625 -49.59375 15.25 -49.953125 15.96875 -49.953125 L 16.53125 -49.953125 C 17.257812 -49.953125 17.625 -50.316406 17.625 -51.046875 L 17.625 -52.296875 C 17.625 -53.015625 17.984375 -53.375 18.703125 -53.375 L 37.125 -53.375 C 37.84375 -53.375 38.203125 -53.015625 38.203125 -52.296875 L 38.203125 -51.046875 C 38.203125 -50.316406 38.566406 -49.953125 39.296875 -49.953125 L 40.546875 -49.953125 C 41.265625 -49.953125 41.625 -49.59375 41.625 -48.875 L 41.625 -1.078125 C 41.625 -0.359375 41.265625 0 40.546875 0 L 27.3125 0 C 26.59375 0 26.234375 -0.359375 26.234375 -1.078125 L 26.234375 -19.21875 C 26.234375 -19.9375 25.875 -20.296875 25.15625 -20.296875 L 23.890625 -20.296875 C 23.171875 -20.296875 22.8125 -19.9375 22.8125 -19.21875 L 22.8125 -17.96875 C 22.8125 -17.238281 22.453125 -16.875 21.734375 -16.875 L 20.46875 -16.875 C 19.75 -16.875 19.390625 -16.515625 19.390625 -15.796875 L 19.390625 -1.078125 C 19.390625 -0.359375 19.03125 0 18.3125 0 L 5.078125 0 C 4.347656 0 3.984375 -0.359375 3.984375 -1.078125 Z M 20.46875 -23.375 L 21.734375 -23.375 C 22.453125 -23.375 22.8125 -23.738281 22.8125 -24.46875 L 22.8125 -25.71875 C 22.8125 -26.4375 23.171875 -26.796875 23.890625 -26.796875 L 25.15625 -26.796875 C 25.875 -26.796875 26.234375 -27.160156 26.234375 -27.890625 L 26.234375 -48.875 C 26.234375 -49.59375 25.875 -49.953125 25.15625 -49.953125 L 23.890625 -49.953125 C 23.171875 -49.953125 22.8125 -49.59375 22.8125 -48.875 L 22.8125 -47.625 C 22.8125 -46.894531 22.453125 -46.53125 21.734375 -46.53125 L 20.46875 -46.53125 C 19.75 -46.53125 19.390625 -46.171875 19.390625 -45.453125 L 19.390625 -24.46875 C 19.390625 -23.738281 19.75 -23.375 20.46875 -23.375 Z M 20.46875 -23.375 "/></g></g></g><g fill="#2b2b2b" fill-opacity="1"><g transform="translate(203.648324, 70.748374)"><g><path d="M 19.390625 -48.875 L 19.390625 -27.546875 C 19.390625 -26.828125 19.75 -26.46875 20.46875 -26.46875 L 21.734375 -26.46875 C 22.453125 -26.46875 22.8125 -26.828125 22.8125 -27.546875 L 22.8125 -28.796875 C 22.8125 -29.523438 23.171875 -29.890625 23.890625 -29.890625 L 25.15625 -29.890625 C 25.875 -29.890625 26.234375 -30.25 26.234375 -30.96875 L 26.234375 -45.453125 C 26.234375 -46.171875 25.875 -46.53125 25.15625 -46.53125 L 23.890625 -46.53125 C 23.171875 -46.53125 22.8125 -46.894531 22.8125 -47.625 L 22.8125 -48.875 C 22.8125 -49.59375 22.453125 -49.953125 21.734375 -49.953125 L 20.46875 -49.953125 C 19.75 -49.953125 19.390625 -49.59375 19.390625 -48.875 Z M 3.984375 -1.078125 L 3.984375 -52.296875 C 3.984375 -53.015625 4.347656 -53.375 5.078125 -53.375 L 33.703125 -53.375 C 34.421875 -53.375 34.78125 -53.015625 34.78125 -52.296875 L 34.78125 -51.046875 C 34.78125 -50.316406 35.144531 -49.953125 35.875 -49.953125 L 37.125 -49.953125 C 37.84375 -49.953125 38.203125 -49.59375 38.203125 -48.875 L 38.203125 -47.625 C 38.203125 -46.894531 38.566406 -46.53125 39.296875 -46.53125 L 40.546875 -46.53125 C 41.265625 -46.53125 41.625 -46.171875 41.625 -45.453125 L 41.625 -30.96875 C 41.625 -30.25 41.265625 -29.890625 40.546875 -29.890625 L 39.296875 -29.890625 C 38.566406 -29.890625 38.203125 -29.523438 38.203125 -28.796875 L 38.203125 -27.546875 C 38.203125 -26.828125 37.84375 -26.46875 37.125 -26.46875 L 30.734375 -26.46875 C 30.015625 -26.46875 29.65625 -26.101562 29.65625 -25.375 L 29.65625 -24.125 C 29.65625 -23.40625 30.015625 -23.046875 30.734375 -23.046875 L 37.125 -23.046875 C 37.84375 -23.046875 38.203125 -22.679688 38.203125 -21.953125 L 38.203125 -20.703125 C 38.203125 -19.984375 38.566406 -19.625 39.296875 -19.625 L 40.546875 -19.625 C 41.265625 -19.625 41.625 -19.257812 41.625 -18.53125 L 41.625 -1.078125 C 41.625 -0.359375 41.265625 0 40.546875 0 L 27.3125 0 C 26.59375 0 26.234375 -0.359375 26.234375 -1.078125 L 26.234375 -18.53125 C 26.234375 -19.257812 25.875 -19.625 25.15625 -19.625 L 23.890625 -19.625 C 23.171875 -19.625 22.8125 -19.984375 22.8125 -20.703125 L 22.8125 -21.953125 C 22.8125 -22.679688 22.453125 -23.046875 21.734375 -23.046875 L 20.46875 -23.046875 C 19.75 -23.046875 19.390625 -22.679688 19.390625 -21.953125 L 19.390625 -1.078125 C 19.390625 -0.359375 19.03125 0 18.3125 0 L 5.078125 0 C 4.347656 0 3.984375 -0.359375 3.984375 -1.078125 Z M 3.984375 -1.078125 "/></g></g></g><g fill="#2b2b2b" fill-opacity="1"><g transform="translate(260.215481, 70.748374)"><g><path d="M 3.984375 -1.078125 L 3.984375 -52.296875 C 3.984375 -53.015625 4.347656 -53.375 5.078125 -53.375 L 18.3125 -53.375 C 19.03125 -53.375 19.390625 -53.015625 19.390625 -52.296875 L 19.390625 -1.078125 C 19.390625 -0.359375 19.03125 0 18.3125 0 L 5.078125 0 C 4.347656 0 3.984375 -0.359375 3.984375 -1.078125 Z M 21.390625 -68.09375 L 21.390625 -64.671875 C 21.390625 -63.953125 21.023438 -63.59375 20.296875 -63.59375 L 9.8125 -63.59375 C 9.082031 -63.59375 8.71875 -63.226562 8.71875 -62.5 L 8.71875 -59.078125 C 8.71875 -58.128906 8.242188 -57.65625 7.296875 -57.65625 L 3.421875 -57.65625 C 2.472656 -57.65625 2 -58.128906 2 -59.078125 L 2 -62.5 C 2 -63.226562 2.359375 -63.59375 3.078125 -63.59375 L 6.15625 -63.59375 C 6.882812 -63.59375 7.25 -63.953125 7.25 -64.671875 L 7.25 -68.09375 C 7.25 -68.8125 7.609375 -69.171875 8.328125 -69.171875 L 20.296875 -69.171875 C 21.023438 -69.171875 21.390625 -68.8125 21.390625 -68.09375 Z M 21.390625 -68.09375 "/></g></g></g><g fill="#2b2b2b" fill-opacity="1"><g transform="translate(294.544633, 70.748374)"><g><path d="M 3.984375 -1.078125 L 3.984375 -52.296875 C 3.984375 -53.015625 4.347656 -53.375 5.078125 -53.375 L 18.3125 -53.375 C 19.03125 -53.375 19.390625 -53.015625 19.390625 -52.296875 L 19.390625 -31.53125 C 19.390625 -30.8125 19.75 -30.453125 20.46875 -30.453125 L 21.734375 -30.453125 C 22.453125 -30.453125 22.8125 -30.8125 22.8125 -31.53125 L 22.8125 -32.796875 C 22.8125 -33.515625 23.171875 -33.875 23.890625 -33.875 L 25.15625 -33.875 C 25.875 -33.875 26.234375 -34.234375 26.234375 -34.953125 L 26.234375 -52.296875 C 26.234375 -53.015625 26.59375 -53.375 27.3125 -53.375 L 40.546875 -53.375 C 41.265625 -53.375 41.625 -53.015625 41.625 -52.296875 L 41.625 -31.53125 C 41.625 -30.8125 41.265625 -30.453125 40.546875 -30.453125 L 30.734375 -30.453125 C 30.015625 -30.453125 29.65625 -30.09375 29.65625 -29.375 L 29.65625 -28.109375 C 29.65625 -27.390625 30.015625 -27.03125 30.734375 -27.03125 L 37.125 -27.03125 C 37.84375 -27.03125 38.203125 -26.671875 38.203125 -25.953125 L 38.203125 -24.6875 C 38.203125 -23.96875 38.566406 -23.609375 39.296875 -23.609375 L 40.546875 -23.609375 C 41.265625 -23.609375 41.625 -23.25 41.625 -22.53125 L 41.625 -1.078125 C 41.625 -0.359375 41.265625 0 40.546875 0 L 27.3125 0 C 26.59375 0 26.234375 -0.359375 26.234375 -1.078125 L 26.234375 -22.53125 C 26.234375 -23.25 25.875 -23.609375 25.15625 -23.609375 L 23.890625 -23.609375 C 23.171875 -23.609375 22.8125 -23.96875 22.8125 -24.6875 L 22.8125 -25.953125 C 22.8125 -26.671875 22.453125 -27.03125 21.734375 -27.03125 L 20.46875 -27.03125 C 19.75 -27.03125 19.390625 -26.671875 19.390625 -25.953125 L 19.390625 -1.078125 C 19.390625 -0.359375 19.03125 0 18.3125 0 L 5.078125 0 C 4.347656 0 3.984375 -0.359375 3.984375 -1.078125 Z M 3.984375 -1.078125 "/></g></g></g><g fill="#2b2b2b" fill-opacity="1"><g transform="translate(351.11179, 70.748374)"><g><path d="M 6.265625 -1.078125 L 6.265625 -1.203125 C 6.265625 -1.921875 5.867188 -2.28125 5.078125 -2.28125 C 4.347656 -2.28125 3.984375 -2.640625 3.984375 -3.359375 L 3.984375 -12.09375 C 3.984375 -12.769531 4.382812 -13.109375 5.1875 -13.109375 C 5.90625 -13.109375 6.265625 -13.53125 6.265625 -14.375 C 6.265625 -15.050781 6.628906 -15.390625 7.359375 -15.390625 L 16.03125 -15.390625 C 16.75 -15.390625 17.109375 -15.007812 17.109375 -14.25 C 17.109375 -13.488281 17.507812 -13.109375 18.3125 -13.109375 C 19.03125 -13.109375 19.390625 -12.769531 19.390625 -12.09375 L 19.390625 -3.359375 C 19.390625 -2.640625 18.988281 -2.28125 18.1875 -2.28125 C 17.46875 -2.28125 17.109375 -1.878906 17.109375 -1.078125 C 17.109375 -0.359375 16.75 0 16.03125 0 L 7.359375 0 C 6.628906 0 6.265625 -0.359375 6.265625 -1.078125 Z M 6.265625 -1.078125 "/></g></g></g><g fill="#2b2b2b" fill-opacity="1"><g transform="translate(385.440941, 70.748374)"><g><path d="M 10.828125 -1.078125 L 10.828125 -2.34375 C 10.828125 -3.0625 10.46875 -3.421875 9.75 -3.421875 L 8.5 -3.421875 C 7.769531 -3.421875 7.40625 -3.78125 7.40625 -4.5 L 7.40625 -5.765625 C 7.40625 -6.484375 7.046875 -6.84375 6.328125 -6.84375 L 5.078125 -6.84375 C 4.347656 -6.84375 3.984375 -7.203125 3.984375 -7.921875 L 3.984375 -45.453125 C 3.984375 -46.171875 4.347656 -46.53125 5.078125 -46.53125 L 6.328125 -46.53125 C 7.046875 -46.53125 7.40625 -46.894531 7.40625 -47.625 L 7.40625 -48.875 C 7.40625 -49.59375 7.769531 -49.953125 8.5 -49.953125 L 9.75 -49.953125 C 10.46875 -49.953125 10.828125 -50.316406 10.828125 -51.046875 L 10.828125 -52.296875 C 10.828125 -53.015625 11.191406 -53.375 11.921875 -53.375 L 36.21875 -53.375 C 36.976562 -53.375 37.359375 -52.992188 37.359375 -52.234375 L 37.359375 -51.09375 C 37.359375 -50.332031 37.738281 -49.953125 38.5 -49.953125 L 40.484375 -49.953125 C 41.242188 -49.953125 41.625 -49.570312 41.625 -48.8125 L 41.625 -39.125 C 41.625 -38.363281 41.242188 -37.984375 40.484375 -37.984375 L 30.796875 -37.984375 C 30.035156 -37.984375 29.65625 -38.363281 29.65625 -39.125 L 29.65625 -40.328125 C 29.65625 -41.046875 29.296875 -41.40625 28.578125 -41.40625 L 27.375 -41.40625 C 26.613281 -41.40625 26.234375 -41.785156 26.234375 -42.546875 L 26.234375 -48.875 C 26.234375 -49.59375 25.875 -49.953125 25.15625 -49.953125 L 23.890625 -49.953125 C 23.171875 -49.953125 22.8125 -49.59375 22.8125 -48.875 L 22.8125 -47.625 C 22.8125 -46.894531 22.453125 -46.53125 21.734375 -46.53125 L 20.46875 -46.53125 C 19.75 -46.53125 19.390625 -46.171875 19.390625 -45.453125 L 19.390625 -7.921875 C 19.390625 -7.203125 19.75 -6.84375 20.46875 -6.84375 L 21.734375 -6.84375 C 22.453125 -6.84375 22.8125 -6.484375 22.8125 -5.765625 L 22.8125 -4.5 C 22.8125 -3.78125 23.171875 -3.421875 23.890625 -3.421875 L 25.15625 -3.421875 C 25.875 -3.421875 26.234375 -3.78125 26.234375 -4.5 L 26.234375 -14.25 C 26.234375 -15.007812 26.613281 -15.390625 27.375 -15.390625 L 40.484375 -15.390625 C 41.242188 -15.390625 41.625 -15.007812 41.625 -14.25 L 41.625 -4.5625 C 41.625 -3.800781 41.242188 -3.421875 40.484375 -3.421875 L 39.34375 -3.421875 C 38.582031 -3.421875 38.203125 -3.039062 38.203125 -2.28125 L 38.203125 -1.140625 C 38.203125 -0.378906 37.820312 0 37.0625 0 L 11.921875 0 C 11.191406 0 10.828125 -0.359375 10.828125 -1.078125 Z M 10.828125 -1.078125 "/></g></g></g><g fill="#2b2b2b" fill-opacity="1"><g transform="translate(441.437876, 70.748374)"><g><path d="M 2.84375 -1.078125 L 2.84375 -24.578125 C 2.84375 -25.296875 3.207031 -25.65625 3.9375 -25.65625 L 5.1875 -25.65625 C 5.90625 -25.65625 6.265625 -26.019531 6.265625 -26.75 L 6.265625 -28 C 6.265625 -28.71875 6.628906 -29.078125 7.359375 -29.078125 L 18.875 -29.078125 C 19.59375 -29.078125 19.953125 -29.441406 19.953125 -30.171875 L 19.953125 -31.421875 C 19.953125 -32.140625 20.316406 -32.5 21.046875 -32.5 L 24.015625 -32.5 C 24.734375 -32.5 25.09375 -32.863281 25.09375 -33.59375 L 25.09375 -45.453125 C 25.09375 -46.171875 24.734375 -46.53125 24.015625 -46.53125 L 22.75 -46.53125 C 22.03125 -46.53125 21.671875 -46.894531 21.671875 -47.625 L 21.671875 -48.875 C 21.671875 -49.59375 21.3125 -49.953125 20.59375 -49.953125 L 19.328125 -49.953125 C 18.609375 -49.953125 18.25 -49.59375 18.25 -48.875 L 18.25 -42.484375 C 18.25 -41.765625 17.890625 -41.40625 17.171875 -41.40625 L 15.90625 -41.40625 C 15.1875 -41.40625 14.828125 -41.046875 14.828125 -40.328125 L 14.828125 -39.0625 C 14.828125 -38.34375 14.46875 -37.984375 13.75 -37.984375 L 3.9375 -37.984375 C 3.207031 -37.984375 2.84375 -38.34375 2.84375 -39.0625 L 2.84375 -52.296875 C 2.84375 -53.015625 3.207031 -53.375 3.9375 -53.375 L 37.703125 -53.375 C 38.421875 -53.375 38.78125 -53.015625 38.78125 -52.296875 L 38.78125 -33.59375 C 38.78125 -32.863281 38.421875 -32.5 37.703125 -32.5 L 36.4375 -32.5 C 35.71875 -32.5 35.359375 -32.140625 35.359375 -31.421875 L 35.359375 -30.171875 C 35.359375 -29.441406 35 -29.078125 34.28125 -29.078125 L 33.015625 -29.078125 C 32.296875 -29.078125 31.9375 -28.71875 31.9375 -28 L 31.9375 -26.75 C 31.9375 -26.019531 31.578125 -25.65625 30.859375 -25.65625 L 17.671875 -25.65625 C 16.953125 -25.65625 16.59375 -25.296875 16.59375 -24.578125 L 16.59375 -7.921875 C 16.59375 -7.203125 16.953125 -6.84375 17.671875 -6.84375 L 18.875 -6.84375 C 19.59375 -6.84375 19.953125 -6.484375 19.953125 -5.765625 L 19.953125 -4.5 C 19.953125 -3.78125 20.316406 -3.421875 21.046875 -3.421875 L 22.296875 -3.421875 C 23.015625 -3.421875 23.375 -3.78125 23.375 -4.5 L 23.375 -14.3125 C 23.375 -15.03125 23.738281 -15.390625 24.46875 -15.390625 L 37.703125 -15.390625 C 38.421875 -15.390625 38.78125 -15.03125 38.78125 -14.3125 L 38.78125 -1.078125 C 38.78125 -0.359375 38.421875 0 37.703125 0 L 3.9375 0 C 3.207031 0 2.84375 -0.359375 2.84375 -1.078125 Z M 2.84375 -1.078125 "/></g></g></g></g></g><g transform="matrix(1, 0, 0, 1, 321, 43)"><g clip-path="url(#0e3fafbd85)"><g fill="#2b2b2b" fill-opacity="1"><g transform="translate(0.164401, 69.079252)"><g><path d="M 2.28125 -51.734375 C 2.28125 -52.453125 2.640625 -52.8125 3.359375 -52.8125 L 9.640625 -52.8125 C 10.359375 -52.8125 10.71875 -52.453125 10.71875 -51.734375 L 10.71875 -48.3125 C 10.71875 -47.582031 11.082031 -47.21875 11.8125 -47.21875 L 13.40625 -47.21875 C 14.125 -47.21875 14.484375 -47.582031 14.484375 -48.3125 L 14.484375 -51.734375 C 14.484375 -52.453125 14.84375 -52.8125 15.5625 -52.8125 L 21.84375 -52.8125 C 22.5625 -52.8125 22.921875 -52.453125 22.921875 -51.734375 L 22.921875 -48.3125 C 22.921875 -47.582031 22.5625 -47.21875 21.84375 -47.21875 L 17.046875 -47.21875 C 16.328125 -47.21875 15.96875 -46.859375 15.96875 -46.140625 L 15.96875 -42.71875 C 15.96875 -41.769531 15.492188 -41.296875 14.546875 -41.296875 L 10.671875 -41.296875 C 9.710938 -41.296875 9.234375 -41.769531 9.234375 -42.71875 L 9.234375 -46.140625 C 9.234375 -46.859375 8.875 -47.21875 8.15625 -47.21875 L 3.359375 -47.21875 C 2.640625 -47.21875 2.28125 -47.582031 2.28125 -48.3125 Z M 2.28125 -51.734375 "/></g></g></g><g fill="#2b2b2b" fill-opacity="1"><g transform="translate(36.343629, 69.079252)"><g/></g></g><g fill="#2b2b2b" fill-opacity="1"><g transform="translate(61.549515, 69.079252)"><g/></g></g><g fill="#2b2b2b" fill-opacity="1"><g transform="translate(86.755402, 69.079252)"><g/></g></g><g fill="#2b2b2b" fill-opacity="1"><g transform="translate(111.971292, 69.079252)"><g><path d="M 2.28125 -51.734375 C 2.28125 -52.453125 2.640625 -52.8125 3.359375 -52.8125 L 9.640625 -52.8125 C 10.359375 -52.8125 10.71875 -52.453125 10.71875 -51.734375 L 10.71875 -48.3125 C 10.71875 -47.582031 11.082031 -47.21875 11.8125 -47.21875 L 13.40625 -47.21875 C 14.125 -47.21875 14.484375 -47.582031 14.484375 -48.3125 L 14.484375 -51.734375 C 14.484375 -52.453125 14.84375 -52.8125 15.5625 -52.8125 L 21.84375 -52.8125 C 22.5625 -52.8125 22.921875 -52.453125 22.921875 -51.734375 L 22.921875 -48.3125 C 22.921875 -47.582031 22.5625 -47.21875 21.84375 -47.21875 L 17.046875 -47.21875 C 16.328125 -47.21875 15.96875 -46.859375 15.96875 -46.140625 L 15.96875 -42.71875 C 15.96875 -41.769531 15.492188 -41.296875 14.546875 -41.296875 L 10.671875 -41.296875 C 9.710938 -41.296875 9.234375 -41.769531 9.234375 -42.71875 L 9.234375 -46.140625 C 9.234375 -46.859375 8.875 -47.21875 8.15625 -47.21875 L 3.359375 -47.21875 C 2.640625 -47.21875 2.28125 -47.582031 2.28125 -48.3125 Z M 2.28125 -51.734375 "/></g></g></g></g></g><g clip-path="url(#a9891f4da3)"><path fill="#2b2b2b" d="M 73.289062 131.15625 L 139.277344 131.15625 C 140.660156 131.15625 142.023438 131.328125 143.363281 131.671875 C 144.703125 132.015625 145.980469 132.519531 147.195312 133.183594 C 148.410156 133.847656 149.519531 134.652344 150.53125 135.597656 C 151.542969 136.542969 152.421875 137.597656 153.167969 138.761719 C 152.847656 139.085938 152.542969 139.429688 152.257812 139.789062 C 151.976562 140.144531 151.710938 140.519531 151.46875 140.90625 C 151.222656 141.292969 151.003906 141.691406 150.800781 142.101562 C 150.601562 142.511719 150.421875 142.933594 150.269531 143.363281 C 150.113281 143.792969 149.980469 144.230469 149.875 144.671875 C 149.765625 145.117188 149.683594 145.566406 149.625 146.019531 C 149.5625 146.472656 149.53125 146.925781 149.519531 147.382812 C 149.507812 147.839844 149.523438 148.296875 149.5625 148.753906 C 149.601562 149.207031 149.667969 149.660156 149.753906 150.109375 C 149.84375 150.558594 149.957031 151 150.09375 151.4375 C 150.226562 151.871094 150.386719 152.300781 150.570312 152.71875 C 150.753906 153.136719 150.957031 153.546875 151.183594 153.941406 C 151.410156 154.339844 151.65625 154.722656 151.925781 155.09375 C 152.195312 155.464844 152.480469 155.820312 152.789062 156.15625 C 153.09375 156.496094 153.417969 156.820312 153.761719 157.121094 C 154.101562 157.425781 154.457031 157.710938 154.828125 157.976562 C 155.203125 158.242188 155.585938 158.488281 155.984375 158.710938 C 156.382812 158.933594 156.792969 159.136719 157.214844 159.316406 C 157.636719 159.496094 158.0625 159.652344 158.5 159.785156 C 158.9375 159.917969 159.382812 160.027344 159.832031 160.109375 C 160.28125 160.195312 160.730469 160.257812 161.1875 160.292969 C 161.644531 160.328125 162.101562 160.339844 162.554688 160.328125 C 163.011719 160.3125 163.46875 160.273438 163.921875 160.210938 C 164.375 160.148438 164.820312 160.0625 165.265625 159.953125 C 165.707031 159.839844 166.144531 159.707031 166.574219 159.546875 C 167.003906 159.390625 167.421875 159.210938 167.832031 159.007812 C 168.238281 158.800781 168.636719 158.578125 169.023438 158.332031 C 169.40625 158.085938 169.777344 157.816406 170.132812 157.53125 C 170.488281 157.246094 170.828125 156.941406 171.152344 156.617188 C 171.476562 156.292969 171.78125 155.953125 172.066406 155.597656 C 172.351562 155.242188 172.617188 154.871094 172.863281 154.484375 C 173.109375 154.101562 173.335938 153.703125 173.539062 153.292969 C 173.742188 152.882812 173.921875 152.464844 174.082031 152.035156 C 174.238281 151.605469 174.371094 151.171875 174.484375 150.726562 C 174.59375 150.28125 174.679688 149.835938 174.742188 149.382812 C 174.804688 148.929688 174.839844 148.472656 174.855469 148.015625 C 174.867188 147.558594 174.855469 147.105469 174.820312 146.648438 C 174.78125 146.191406 174.722656 145.742188 174.636719 145.292969 C 174.550781 144.84375 174.441406 144.398438 174.308594 143.960938 C 174.175781 143.523438 174.019531 143.097656 173.839844 142.675781 C 173.660156 142.257812 173.457031 141.847656 173.234375 141.449219 C 173.007812 141.050781 172.761719 140.664062 172.496094 140.292969 C 172.230469 139.921875 171.945312 139.566406 171.640625 139.222656 C 171.339844 138.882812 171.015625 138.558594 170.675781 138.253906 C 170.335938 137.945312 169.984375 137.660156 169.613281 137.390625 C 169.242188 137.125 168.859375 136.875 168.460938 136.652344 C 168.0625 136.425781 167.65625 136.21875 167.238281 136.039062 C 166.816406 135.855469 166.390625 135.695312 165.953125 135.5625 C 165.375 134.285156 164.707031 133.058594 163.949219 131.882812 C 163.195312 130.703125 162.359375 129.582031 161.445312 128.523438 C 160.527344 127.464844 159.542969 126.476562 158.484375 125.558594 C 157.429688 124.640625 156.3125 123.800781 155.136719 123.042969 C 153.957031 122.285156 152.734375 121.613281 151.460938 121.03125 C 150.1875 120.449219 148.878906 119.957031 147.535156 119.5625 C 146.195312 119.167969 144.828125 118.867188 143.445312 118.667969 C 142.058594 118.46875 140.664062 118.367188 139.265625 118.367188 L 73.289062 118.367188 C 71.945312 118.367188 70.605469 118.300781 69.269531 118.167969 C 67.933594 118.035156 66.605469 117.839844 65.289062 117.578125 C 63.972656 117.316406 62.671875 116.988281 61.386719 116.601562 C 60.101562 116.210938 58.839844 115.757812 57.597656 115.246094 C 56.355469 114.730469 55.144531 114.15625 53.960938 113.523438 C 52.777344 112.890625 51.625 112.203125 50.507812 111.457031 C 49.390625 110.710938 48.3125 109.910156 47.277344 109.058594 C 46.238281 108.207031 45.246094 107.304688 44.292969 106.355469 C 43.34375 105.40625 42.445312 104.414062 41.59375 103.375 C 40.742188 102.335938 39.941406 101.257812 39.195312 100.144531 C 38.449219 99.027344 37.757812 97.875 37.125 96.691406 C 36.492188 95.507812 35.921875 94.292969 35.40625 93.054688 C 34.890625 91.8125 34.441406 90.550781 34.050781 89.265625 C 33.660156 87.980469 33.335938 86.679688 33.074219 85.363281 C 32.8125 84.042969 32.613281 82.71875 32.484375 81.382812 C 32.351562 80.042969 32.285156 78.707031 32.285156 77.363281 C 32.285156 76.019531 32.351562 74.679688 32.484375 73.34375 C 32.613281 72.007812 32.8125 70.679688 33.074219 69.363281 C 33.335938 68.046875 33.660156 66.746094 34.050781 65.460938 C 34.441406 64.175781 34.890625 62.910156 35.40625 61.671875 C 35.921875 60.429688 36.492188 59.21875 37.125 58.03125 C 37.757812 56.847656 38.449219 55.699219 39.195312 54.582031 C 39.941406 53.464844 40.742188 52.386719 41.59375 51.351562 C 42.445312 50.3125 43.34375 49.316406 44.292969 48.367188 C 45.246094 47.417969 46.238281 46.519531 47.277344 45.664062 C 48.3125 44.8125 49.390625 44.015625 50.507812 43.269531 C 51.625 42.523438 52.777344 41.832031 53.960938 41.199219 C 55.144531 40.566406 56.355469 39.992188 57.597656 39.480469 C 58.839844 38.964844 60.101562 38.515625 61.386719 38.125 C 62.671875 37.734375 63.972656 37.410156 65.289062 37.144531 C 66.605469 36.882812 67.933594 36.6875 69.269531 36.554688 C 70.605469 36.425781 71.945312 36.359375 73.289062 36.359375 L 125.183594 36.359375 C 125.414062 36.757812 125.667969 37.140625 125.941406 37.511719 C 126.214844 37.878906 126.507812 38.234375 126.824219 38.570312 C 127.136719 38.910156 127.464844 39.230469 127.8125 39.53125 C 128.160156 39.835938 128.523438 40.117188 128.902344 40.378906 C 129.28125 40.640625 129.671875 40.882812 130.074219 41.101562 C 130.480469 41.324219 130.894531 41.519531 131.320312 41.695312 C 131.746094 41.871094 132.183594 42.019531 132.625 42.148438 C 133.066406 42.273438 133.515625 42.378906 133.96875 42.457031 C 134.421875 42.535156 134.878906 42.589844 135.339844 42.617188 C 135.796875 42.644531 136.257812 42.648438 136.71875 42.628906 C 137.179688 42.605469 137.636719 42.558594 138.089844 42.488281 C 138.546875 42.417969 138.996094 42.320312 139.441406 42.199219 C 139.882812 42.082031 140.320312 41.9375 140.75 41.769531 C 141.179688 41.601562 141.597656 41.410156 142.003906 41.195312 C 142.414062 40.984375 142.808594 40.75 143.191406 40.492188 C 143.574219 40.234375 143.941406 39.957031 144.292969 39.660156 C 144.644531 39.367188 144.980469 39.050781 145.296875 38.71875 C 145.617188 38.382812 145.914062 38.035156 146.195312 37.667969 C 146.472656 37.304688 146.734375 36.925781 146.972656 36.53125 C 147.210938 36.136719 147.425781 35.730469 147.621094 35.3125 C 147.816406 34.894531 147.988281 34.46875 148.132812 34.03125 C 148.28125 33.597656 148.40625 33.152344 148.503906 32.703125 C 148.605469 32.253906 148.679688 31.800781 148.730469 31.34375 C 148.78125 30.886719 148.804688 30.425781 148.804688 29.964844 C 148.804688 29.503906 148.78125 29.046875 148.730469 28.589844 C 148.679688 28.128906 148.605469 27.675781 148.503906 27.226562 C 148.40625 26.777344 148.28125 26.335938 148.132812 25.898438 C 147.988281 25.460938 147.816406 25.035156 147.621094 24.617188 C 147.425781 24.199219 147.210938 23.792969 146.972656 23.402344 C 146.734375 23.007812 146.472656 22.628906 146.195312 22.261719 C 145.914062 21.894531 145.617188 21.546875 145.296875 21.214844 C 144.980469 20.878906 144.644531 20.566406 144.292969 20.269531 C 143.941406 19.972656 143.574219 19.695312 143.191406 19.4375 C 142.808594 19.183594 142.414062 18.949219 142.003906 18.734375 C 141.597656 18.519531 141.179688 18.328125 140.75 18.160156 C 140.320312 17.992188 139.882812 17.851562 139.441406 17.730469 C 138.996094 17.609375 138.546875 17.511719 138.089844 17.441406 C 137.636719 17.371094 137.179688 17.324219 136.71875 17.304688 C 136.257812 17.28125 135.796875 17.285156 135.339844 17.3125 C 134.878906 17.34375 134.421875 17.394531 133.96875 17.476562 C 133.515625 17.554688 133.066406 17.65625 132.625 17.785156 C 132.183594 17.910156 131.746094 18.0625 131.320312 18.234375 C 130.894531 18.410156 130.480469 18.609375 130.074219 18.828125 C 129.671875 19.046875 129.28125 19.289062 128.902344 19.550781 C 128.523438 19.8125 128.160156 20.097656 127.8125 20.398438 C 127.464844 20.699219 127.136719 21.019531 126.824219 21.359375 C 126.507812 21.695312 126.214844 22.050781 125.941406 22.421875 C 125.667969 22.789062 125.414062 23.175781 125.183594 23.574219 L 73.289062 23.574219 C 71.527344 23.574219 69.769531 23.660156 68.015625 23.832031 C 66.261719 24.003906 64.519531 24.261719 62.789062 24.605469 C 61.0625 24.949219 59.351562 25.378906 57.667969 25.890625 C 55.980469 26.402344 54.324219 26.996094 52.695312 27.667969 C 51.066406 28.34375 49.472656 29.097656 47.921875 29.925781 C 46.367188 30.757812 44.855469 31.664062 43.390625 32.640625 C 41.925781 33.621094 40.511719 34.671875 39.148438 35.789062 C 37.785156 36.90625 36.480469 38.089844 35.234375 39.335938 C 33.988281 40.582031 32.804688 41.886719 31.6875 43.246094 C 30.570312 44.609375 29.519531 46.023438 28.542969 47.488281 C 27.5625 48.957031 26.65625 50.464844 25.828125 52.019531 C 24.996094 53.574219 24.242188 55.164062 23.570312 56.792969 C 22.894531 58.421875 22.300781 60.078125 21.789062 61.765625 C 21.277344 63.453125 20.851562 65.160156 20.507812 66.890625 C 20.164062 68.617188 19.90625 70.359375 19.730469 72.113281 C 19.558594 73.867188 19.472656 75.625 19.472656 77.390625 C 19.472656 79.152344 19.558594 80.910156 19.730469 82.664062 C 19.90625 84.417969 20.164062 86.160156 20.507812 87.886719 C 20.851562 89.617188 21.277344 91.324219 21.789062 93.011719 C 22.300781 94.699219 22.894531 96.355469 23.570312 97.984375 C 24.242188 99.613281 24.996094 101.203125 25.828125 102.757812 C 26.65625 104.3125 27.5625 105.820312 28.542969 107.289062 C 29.519531 108.753906 30.570312 110.167969 31.6875 111.53125 C 32.804688 112.890625 33.988281 114.195312 35.234375 115.441406 C 36.480469 116.6875 37.785156 117.871094 39.148438 118.988281 C 40.511719 120.105469 41.925781 121.15625 43.390625 122.136719 C 44.855469 123.113281 46.367188 124.019531 47.921875 124.851562 C 49.472656 125.679688 51.066406 126.433594 52.695312 127.109375 C 54.324219 127.78125 55.980469 128.375 57.667969 128.886719 C 59.351562 129.398438 61.0625 129.828125 62.789062 130.171875 C 64.519531 130.515625 66.261719 130.773438 68.015625 130.945312 C 69.769531 131.117188 71.527344 131.203125 73.289062 131.203125 Z M 73.289062 131.15625 " fill-opacity="1" fill-rule="nonzero"/></g><path fill="#8c52ff" d="M 84.261719 48.023438 C 84.03125 47.625 83.78125 47.242188 83.507812 46.867188 C 83.238281 46.496094 82.945312 46.140625 82.636719 45.800781 C 82.324219 45.460938 81.996094 45.140625 81.652344 44.835938 C 81.304688 44.53125 80.941406 44.25 80.566406 43.984375 C 80.191406 43.71875 79.800781 43.476562 79.394531 43.253906 C 78.992188 43.03125 78.578125 42.832031 78.152344 42.65625 C 77.726562 42.476562 77.292969 42.324219 76.851562 42.195312 C 76.410156 42.066406 75.964844 41.960938 75.511719 41.878906 C 75.058594 41.796875 74.601562 41.742188 74.140625 41.710938 C 73.683594 41.679688 73.222656 41.671875 72.761719 41.691406 C 72.300781 41.710938 71.84375 41.753906 71.390625 41.824219 C 70.933594 41.890625 70.484375 41.984375 70.039062 42.105469 C 69.59375 42.222656 69.15625 42.363281 68.726562 42.527344 C 68.296875 42.695312 67.875 42.882812 67.46875 43.09375 C 67.058594 43.304688 66.660156 43.539062 66.277344 43.792969 C 65.894531 44.046875 65.527344 44.320312 65.171875 44.617188 C 64.816406 44.910156 64.480469 45.222656 64.160156 45.554688 C 63.839844 45.886719 63.539062 46.234375 63.257812 46.597656 C 62.976562 46.960938 62.714844 47.339844 62.476562 47.734375 C 62.234375 48.125 62.015625 48.53125 61.820312 48.945312 C 61.621094 49.363281 61.449219 49.789062 61.300781 50.222656 C 61.148438 50.660156 61.023438 51.101562 60.921875 51.550781 C 60.820312 52 60.742188 52.453125 60.6875 52.910156 C 60.636719 53.367188 60.609375 53.828125 60.605469 54.289062 C 60.605469 54.746094 60.625 55.207031 60.675781 55.664062 C 60.722656 56.125 60.792969 56.578125 60.890625 57.027344 C 60.988281 57.476562 61.109375 57.921875 61.253906 58.359375 C 61.398438 58.796875 61.566406 59.222656 61.761719 59.640625 C 61.953125 60.058594 62.167969 60.464844 62.402344 60.863281 C 62.640625 61.257812 62.894531 61.636719 63.171875 62.003906 C 63.453125 62.371094 63.75 62.722656 64.066406 63.058594 C 64.378906 63.394531 64.714844 63.710938 65.066406 64.007812 C 65.414062 64.308594 65.78125 64.585938 66.160156 64.84375 C 66.542969 65.101562 66.9375 65.339844 67.34375 65.554688 C 67.75 65.773438 68.167969 65.964844 68.59375 66.136719 C 69.023438 66.304688 69.460938 66.453125 69.902344 66.574219 C 70.347656 66.699219 70.796875 66.796875 71.25 66.871094 C 71.707031 66.941406 72.164062 66.992188 72.621094 67.015625 C 73.082031 67.039062 73.542969 67.039062 74 67.011719 C 74.460938 66.988281 74.917969 66.9375 75.371094 66.859375 C 75.828125 66.785156 76.273438 66.683594 76.71875 66.558594 C 77.160156 66.433594 77.597656 66.285156 78.023438 66.113281 C 78.449219 65.941406 78.867188 65.746094 79.273438 65.527344 C 79.679688 65.308594 80.070312 65.070312 80.453125 64.8125 C 80.832031 64.550781 81.195312 64.269531 81.546875 63.96875 C 81.894531 63.671875 82.226562 63.351562 82.539062 63.015625 C 82.855469 62.679688 83.148438 62.328125 83.425781 61.957031 C 83.703125 61.589844 83.957031 61.207031 84.191406 60.8125 L 164.652344 60.8125 C 164.886719 61.207031 165.140625 61.589844 165.417969 61.957031 C 165.695312 62.328125 165.988281 62.679688 166.304688 63.015625 C 166.617188 63.351562 166.949219 63.671875 167.300781 63.96875 C 167.648438 64.269531 168.011719 64.550781 168.394531 64.8125 C 168.773438 65.070312 169.164062 65.308594 169.570312 65.527344 C 169.976562 65.746094 170.394531 65.941406 170.820312 66.113281 C 171.246094 66.285156 171.683594 66.433594 172.125 66.558594 C 172.570312 66.683594 173.019531 66.785156 173.472656 66.859375 C 173.925781 66.9375 174.382812 66.988281 174.84375 67.011719 C 175.300781 67.039062 175.761719 67.039062 176.222656 67.015625 C 176.683594 66.992188 177.140625 66.941406 177.59375 66.871094 C 178.046875 66.796875 178.496094 66.699219 178.941406 66.574219 C 179.386719 66.453125 179.820312 66.304688 180.25 66.136719 C 180.675781 65.964844 181.09375 65.773438 181.5 65.554688 C 181.90625 65.339844 182.300781 65.101562 182.683594 64.84375 C 183.0625 64.585938 183.429688 64.308594 183.78125 64.007812 C 184.128906 63.710938 184.464844 63.394531 184.78125 63.058594 C 185.097656 62.722656 185.394531 62.371094 185.671875 62.003906 C 185.949219 61.636719 186.207031 61.257812 186.441406 60.863281 C 186.679688 60.464844 186.890625 60.058594 187.085938 59.640625 C 187.277344 59.222656 187.445312 58.796875 187.589844 58.359375 C 187.734375 57.921875 187.855469 57.476562 187.953125 57.027344 C 188.050781 56.578125 188.125 56.125 188.171875 55.664062 C 188.21875 55.207031 188.242188 54.746094 188.238281 54.289062 C 188.234375 53.828125 188.207031 53.367188 188.15625 52.910156 C 188.101562 52.453125 188.027344 52 187.921875 51.550781 C 187.820312 51.101562 187.695312 50.660156 187.546875 50.222656 C 187.394531 49.789062 187.222656 49.363281 187.027344 48.945312 C 186.828125 48.53125 186.609375 48.125 186.371094 47.734375 C 186.128906 47.339844 185.867188 46.960938 185.585938 46.597656 C 185.304688 46.234375 185.003906 45.886719 184.683594 45.554688 C 184.363281 45.222656 184.027344 44.910156 183.671875 44.617188 C 183.320312 44.320312 182.949219 44.046875 182.566406 43.792969 C 182.183594 43.539062 181.785156 43.304688 181.378906 43.09375 C 180.96875 42.882812 180.546875 42.695312 180.117188 42.527344 C 179.6875 42.363281 179.25 42.222656 178.804688 42.105469 C 178.359375 41.984375 177.910156 41.890625 177.457031 41.824219 C 177 41.753906 176.542969 41.710938 176.082031 41.691406 C 175.621094 41.671875 175.164062 41.679688 174.703125 41.710938 C 174.242188 41.742188 173.789062 41.796875 173.335938 41.878906 C 172.882812 41.960938 172.433594 42.066406 171.992188 42.195312 C 171.550781 42.324219 171.117188 42.476562 170.691406 42.65625 C 170.265625 42.832031 169.851562 43.03125 169.449219 43.253906 C 169.046875 43.476562 168.65625 43.71875 168.277344 43.984375 C 167.902344 44.25 167.539062 44.53125 167.195312 44.835938 C 166.847656 45.140625 166.519531 45.460938 166.210938 45.800781 C 165.898438 46.140625 165.605469 46.496094 165.335938 46.867188 C 165.0625 47.242188 164.8125 47.625 164.582031 48.023438 Z M 84.261719 48.023438 " fill-opacity="1" fill-rule="nonzero"/><g clip-path="url(#ef7f7325fc)"><path fill="#8c52ff" d="M 139.277344 93.847656 L 73.289062 93.847656 C 71.90625 93.847656 70.542969 93.675781 69.203125 93.332031 C 67.863281 92.988281 66.585938 92.484375 65.375 91.820312 C 64.160156 91.15625 63.050781 90.351562 62.039062 89.40625 C 61.027344 88.460938 60.148438 87.40625 59.40625 86.242188 C 59.726562 85.917969 60.027344 85.574219 60.3125 85.214844 C 60.597656 84.859375 60.859375 84.484375 61.105469 84.097656 C 61.347656 83.710938 61.570312 83.3125 61.769531 82.902344 C 61.972656 82.492188 62.148438 82.070312 62.304688 81.640625 C 62.457031 81.210938 62.589844 80.773438 62.699219 80.332031 C 62.804688 79.886719 62.890625 79.4375 62.949219 78.984375 C 63.007812 78.53125 63.042969 78.078125 63.050781 77.621094 C 63.0625 77.164062 63.046875 76.707031 63.007812 76.25 C 62.96875 75.796875 62.90625 75.34375 62.816406 74.894531 C 62.726562 74.445312 62.617188 74.003906 62.480469 73.566406 C 62.34375 73.132812 62.183594 72.703125 62 72.285156 C 61.820312 71.867188 61.613281 71.457031 61.386719 71.0625 C 61.160156 70.664062 60.914062 70.28125 60.644531 69.910156 C 60.378906 69.539062 60.089844 69.183594 59.785156 68.847656 C 59.476562 68.507812 59.152344 68.1875 58.8125 67.882812 C 58.46875 67.578125 58.113281 67.292969 57.742188 67.027344 C 57.371094 66.761719 56.984375 66.515625 56.585938 66.292969 C 56.1875 66.070312 55.777344 65.867188 55.355469 65.6875 C 54.9375 65.507812 54.507812 65.351562 54.070312 65.21875 C 53.632812 65.085938 53.191406 64.976562 52.742188 64.894531 C 52.292969 64.808594 51.839844 64.746094 51.382812 64.710938 C 50.929688 64.675781 50.472656 64.664062 50.015625 64.675781 C 49.558594 64.691406 49.101562 64.730469 48.652344 64.792969 C 48.199219 64.855469 47.75 64.941406 47.304688 65.050781 C 46.863281 65.164062 46.425781 65.296875 45.996094 65.457031 C 45.570312 65.613281 45.148438 65.792969 44.742188 65.996094 C 44.332031 66.203125 43.933594 66.425781 43.550781 66.671875 C 43.164062 66.917969 42.792969 67.1875 42.4375 67.472656 C 42.082031 67.757812 41.742188 68.0625 41.417969 68.386719 C 41.097656 68.710938 40.792969 69.050781 40.503906 69.40625 C 40.21875 69.761719 39.953125 70.132812 39.707031 70.519531 C 39.460938 70.90625 39.234375 71.300781 39.03125 71.710938 C 38.828125 72.121094 38.648438 72.539062 38.492188 72.96875 C 38.332031 73.398438 38.199219 73.832031 38.089844 74.277344 C 37.976562 74.722656 37.890625 75.167969 37.828125 75.621094 C 37.765625 76.074219 37.730469 76.53125 37.71875 76.988281 C 37.703125 77.445312 37.714844 77.898438 37.753906 78.355469 C 37.789062 78.8125 37.851562 79.261719 37.933594 79.710938 C 38.019531 80.160156 38.128906 80.605469 38.261719 81.042969 C 38.398438 81.480469 38.554688 81.90625 38.734375 82.328125 C 38.914062 82.75 39.113281 83.15625 39.339844 83.554688 C 39.5625 83.953125 39.808594 84.339844 40.074219 84.710938 C 40.339844 85.082031 40.625 85.441406 40.929688 85.78125 C 41.234375 86.121094 41.554688 86.445312 41.894531 86.75 C 42.234375 87.058594 42.589844 87.34375 42.960938 87.613281 C 43.328125 87.878906 43.714844 88.128906 44.109375 88.351562 C 44.507812 88.578125 44.914062 88.785156 45.335938 88.964844 C 45.753906 89.148438 46.183594 89.308594 46.617188 89.441406 C 47.199219 90.71875 47.867188 91.945312 48.621094 93.121094 C 49.375 94.300781 50.210938 95.421875 51.125 96.480469 C 52.039062 97.539062 53.027344 98.527344 54.082031 99.445312 C 55.140625 100.363281 56.257812 101.203125 57.433594 101.960938 C 58.609375 102.71875 59.835938 103.390625 61.109375 103.972656 C 62.378906 104.554688 63.6875 105.046875 65.03125 105.441406 C 66.375 105.835938 67.738281 106.136719 69.125 106.335938 C 70.507812 106.535156 71.902344 106.636719 73.300781 106.636719 L 139.277344 106.636719 C 140.621094 106.636719 141.960938 106.703125 143.296875 106.835938 C 144.632812 106.96875 145.960938 107.164062 147.277344 107.425781 C 148.59375 107.6875 149.894531 108.015625 151.179688 108.402344 C 152.464844 108.792969 153.730469 109.246094 154.96875 109.757812 C 156.210938 110.273438 157.421875 110.847656 158.605469 111.480469 C 159.792969 112.113281 160.941406 112.800781 162.058594 113.546875 C 163.175781 114.292969 164.253906 115.09375 165.289062 115.945312 C 166.328125 116.796875 167.324219 117.699219 168.273438 118.648438 C 169.222656 119.597656 170.121094 120.589844 170.976562 121.628906 C 171.828125 122.667969 172.625 123.746094 173.371094 124.859375 C 174.117188 125.976562 174.808594 127.128906 175.441406 128.3125 C 176.074219 129.496094 176.648438 130.710938 177.160156 131.949219 C 177.675781 133.191406 178.125 134.453125 178.515625 135.738281 C 178.90625 137.023438 179.230469 138.324219 179.496094 139.640625 C 179.757812 140.960938 179.953125 142.285156 180.085938 143.621094 C 180.214844 144.960938 180.28125 146.300781 180.28125 147.640625 C 180.28125 148.984375 180.214844 150.324219 180.085938 151.660156 C 179.953125 152.996094 179.757812 154.324219 179.496094 155.640625 C 179.230469 156.957031 178.90625 158.257812 178.515625 159.542969 C 178.125 160.828125 177.675781 162.09375 177.160156 163.332031 C 176.648438 164.574219 176.074219 165.785156 175.441406 166.972656 C 174.808594 168.15625 174.117188 169.304688 173.371094 170.421875 C 172.625 171.539062 171.828125 172.617188 170.976562 173.65625 C 170.121094 174.691406 169.222656 175.6875 168.273438 176.636719 C 167.324219 177.585938 166.328125 178.484375 165.289062 179.339844 C 164.253906 180.191406 163.175781 180.988281 162.058594 181.734375 C 160.941406 182.480469 159.792969 183.171875 158.605469 183.804688 C 157.421875 184.4375 156.210938 185.011719 154.96875 185.523438 C 153.730469 186.039062 152.464844 186.488281 151.179688 186.878906 C 149.894531 187.269531 148.59375 187.597656 147.277344 187.859375 C 145.960938 188.121094 144.632812 188.316406 143.296875 188.449219 C 141.960938 188.578125 140.621094 188.644531 139.277344 188.644531 L 86.933594 188.644531 C 86.703125 188.25 86.449219 187.863281 86.175781 187.496094 C 85.898438 187.125 85.605469 186.773438 85.292969 186.433594 C 84.980469 186.097656 84.652344 185.777344 84.304688 185.476562 C 83.957031 185.171875 83.59375 184.890625 83.214844 184.628906 C 82.835938 184.367188 82.445312 184.125 82.039062 183.90625 C 81.632812 183.6875 81.21875 183.492188 80.792969 183.316406 C 80.367188 183.144531 79.933594 182.992188 79.492188 182.863281 C 79.046875 182.738281 78.601562 182.636719 78.144531 182.558594 C 77.691406 182.480469 77.234375 182.425781 76.777344 182.398438 C 76.316406 182.371094 75.859375 182.367188 75.398438 182.386719 C 74.9375 182.410156 74.480469 182.457031 74.027344 182.527344 C 73.570312 182.597656 73.121094 182.695312 72.679688 182.816406 C 72.234375 182.9375 71.796875 183.082031 71.367188 183.25 C 70.941406 183.417969 70.523438 183.605469 70.113281 183.820312 C 69.707031 184.035156 69.3125 184.269531 68.929688 184.527344 C 68.546875 184.78125 68.179688 185.058594 67.828125 185.355469 C 67.476562 185.652344 67.140625 185.96875 66.824219 186.300781 C 66.503906 186.632812 66.207031 186.984375 65.925781 187.347656 C 65.648438 187.714844 65.390625 188.09375 65.152344 188.488281 C 64.914062 188.882812 64.695312 189.285156 64.5 189.703125 C 64.308594 190.121094 64.136719 190.546875 63.988281 190.984375 C 63.839844 191.421875 63.71875 191.863281 63.617188 192.3125 C 63.519531 192.761719 63.445312 193.214844 63.394531 193.671875 C 63.34375 194.128906 63.320312 194.589844 63.320312 195.050781 C 63.320312 195.511719 63.34375 195.96875 63.394531 196.425781 C 63.445312 196.882812 63.519531 197.335938 63.617188 197.785156 C 63.71875 198.238281 63.839844 198.679688 63.988281 199.113281 C 64.136719 199.550781 64.308594 199.976562 64.5 200.394531 C 64.695312 200.8125 64.914062 201.21875 65.152344 201.613281 C 65.390625 202.003906 65.648438 202.386719 65.925781 202.75 C 66.207031 203.117188 66.503906 203.464844 66.824219 203.800781 C 67.140625 204.132812 67.476562 204.445312 67.828125 204.742188 C 68.179688 205.039062 68.546875 205.316406 68.929688 205.574219 C 69.3125 205.828125 69.707031 206.066406 70.113281 206.277344 C 70.523438 206.492188 70.941406 206.683594 71.367188 206.851562 C 71.796875 207.019531 72.234375 207.164062 72.679688 207.285156 C 73.121094 207.402344 73.570312 207.5 74.027344 207.570312 C 74.480469 207.644531 74.9375 207.691406 75.398438 207.710938 C 75.859375 207.734375 76.316406 207.730469 76.777344 207.703125 C 77.234375 207.671875 77.691406 207.621094 78.144531 207.542969 C 78.601562 207.464844 79.046875 207.359375 79.492188 207.234375 C 79.933594 207.105469 80.367188 206.957031 80.792969 206.78125 C 81.21875 206.609375 81.632812 206.410156 82.039062 206.191406 C 82.445312 205.972656 82.835938 205.730469 83.214844 205.46875 C 83.59375 205.207031 83.957031 204.925781 84.304688 204.625 C 84.652344 204.320312 84.980469 204.003906 85.292969 203.664062 C 85.605469 203.328125 85.898438 202.972656 86.175781 202.605469 C 86.449219 202.234375 86.703125 201.851562 86.933594 201.453125 L 139.277344 201.453125 C 141.039062 201.453125 142.800781 201.367188 144.554688 201.195312 C 146.308594 201.023438 148.046875 200.761719 149.777344 200.417969 C 151.507812 200.074219 153.214844 199.648438 154.902344 199.136719 C 156.585938 198.625 158.246094 198.03125 159.871094 197.355469 C 161.5 196.683594 163.09375 195.929688 164.648438 195.097656 C 166.203125 194.269531 167.710938 193.363281 169.175781 192.382812 C 170.644531 191.40625 172.058594 190.355469 173.417969 189.238281 C 174.78125 188.121094 176.085938 186.9375 177.332031 185.691406 C 178.578125 184.445312 179.761719 183.140625 180.878906 181.777344 C 181.996094 180.414062 183.046875 179 184.023438 177.535156 C 185.003906 176.070312 185.910156 174.5625 186.738281 173.007812 C 187.570312 171.453125 188.324219 169.859375 189 168.230469 C 189.671875 166.605469 190.265625 164.945312 190.777344 163.257812 C 191.289062 161.574219 191.71875 159.863281 192.0625 158.136719 C 192.40625 156.40625 192.664062 154.667969 192.835938 152.914062 C 193.007812 151.160156 193.09375 149.398438 193.09375 147.636719 C 193.09375 145.875 193.007812 144.117188 192.835938 142.363281 C 192.664062 140.609375 192.40625 138.867188 192.0625 137.136719 C 191.71875 135.410156 191.289062 133.703125 190.777344 132.015625 C 190.265625 130.328125 189.671875 128.671875 189 127.042969 C 188.324219 125.414062 187.570312 123.824219 186.738281 122.269531 C 185.910156 120.714844 185.003906 119.203125 184.023438 117.738281 C 183.046875 116.273438 181.996094 114.859375 180.878906 113.496094 C 179.761719 112.132812 178.578125 110.828125 177.332031 109.582031 C 176.085938 108.335938 174.78125 107.15625 173.417969 106.035156 C 172.058594 104.917969 170.644531 103.871094 169.175781 102.890625 C 167.710938 101.910156 166.203125 101.007812 164.648438 100.175781 C 163.09375 99.34375 161.5 98.59375 159.871094 97.917969 C 158.246094 97.242188 156.585938 96.648438 154.902344 96.136719 C 153.214844 95.625 151.507812 95.199219 149.777344 94.855469 C 148.046875 94.511719 146.308594 94.253906 144.554688 94.082031 C 142.800781 93.90625 141.039062 93.820312 139.277344 93.820312 Z M 139.277344 93.847656 " fill-opacity="1" fill-rule="nonzero"/></g><path fill="#2b2b2b" d="M 128.339844 176.980469 C 128.570312 177.378906 128.824219 177.761719 129.097656 178.132812 C 129.375 178.5 129.667969 178.855469 129.980469 179.195312 C 130.292969 179.53125 130.621094 179.851562 130.96875 180.15625 C 131.316406 180.457031 131.679688 180.738281 132.058594 181.003906 C 132.4375 181.265625 132.828125 181.507812 133.234375 181.726562 C 133.636719 181.945312 134.054688 182.144531 134.480469 182.320312 C 134.90625 182.492188 135.339844 182.644531 135.785156 182.773438 C 136.226562 182.898438 136.675781 183.003906 137.128906 183.082031 C 137.582031 183.160156 138.039062 183.214844 138.5 183.242188 C 138.960938 183.269531 139.417969 183.273438 139.878906 183.253906 C 140.339844 183.230469 140.796875 183.183594 141.253906 183.113281 C 141.707031 183.042969 142.15625 182.945312 142.601562 182.828125 C 143.046875 182.707031 143.484375 182.5625 143.914062 182.394531 C 144.339844 182.226562 144.761719 182.035156 145.167969 181.820312 C 145.578125 181.609375 145.972656 181.375 146.355469 181.117188 C 146.738281 180.859375 147.105469 180.582031 147.457031 180.285156 C 147.808594 179.988281 148.144531 179.675781 148.460938 179.34375 C 148.78125 179.007812 149.078125 178.660156 149.359375 178.292969 C 149.640625 177.925781 149.898438 177.546875 150.136719 177.152344 C 150.375 176.757812 150.59375 176.355469 150.785156 175.9375 C 150.980469 175.519531 151.152344 175.089844 151.300781 174.65625 C 151.449219 174.21875 151.570312 173.777344 151.671875 173.324219 C 151.769531 172.875 151.84375 172.421875 151.894531 171.964844 C 151.945312 171.507812 151.972656 171.046875 151.972656 170.585938 C 151.972656 170.125 151.945312 169.667969 151.894531 169.207031 C 151.84375 168.75 151.769531 168.296875 151.671875 167.847656 C 151.570312 167.398438 151.449219 166.953125 151.300781 166.515625 C 151.152344 166.082031 150.980469 165.652344 150.785156 165.238281 C 150.59375 164.820312 150.375 164.414062 150.136719 164.019531 C 149.898438 163.625 149.640625 163.246094 149.359375 162.878906 C 149.078125 162.511719 148.78125 162.164062 148.460938 161.832031 C 148.144531 161.496094 147.808594 161.183594 147.457031 160.886719 C 147.105469 160.589844 146.738281 160.3125 146.355469 160.054688 C 145.972656 159.800781 145.578125 159.5625 145.167969 159.351562 C 144.761719 159.136719 144.339844 158.945312 143.914062 158.777344 C 143.484375 158.609375 143.046875 158.464844 142.601562 158.347656 C 142.15625 158.226562 141.707031 158.128906 141.253906 158.058594 C 140.796875 157.988281 140.339844 157.941406 139.878906 157.917969 C 139.417969 157.898438 138.960938 157.902344 138.5 157.929688 C 138.039062 157.960938 137.582031 158.011719 137.128906 158.089844 C 136.675781 158.171875 136.226562 158.273438 135.785156 158.402344 C 135.339844 158.527344 134.90625 158.679688 134.480469 158.855469 C 134.054688 159.027344 133.636719 159.226562 133.234375 159.445312 C 132.828125 159.664062 132.4375 159.90625 132.058594 160.171875 C 131.679688 160.433594 131.316406 160.714844 130.96875 161.015625 C 130.621094 161.320312 130.292969 161.640625 129.980469 161.976562 C 129.667969 162.316406 129.375 162.671875 129.097656 163.042969 C 128.824219 163.410156 128.570312 163.796875 128.339844 164.191406 L 47.953125 164.191406 C 47.722656 163.796875 47.46875 163.410156 47.195312 163.042969 C 46.921875 162.671875 46.628906 162.316406 46.316406 161.980469 C 46.003906 161.640625 45.671875 161.320312 45.324219 161.019531 C 44.976562 160.71875 44.613281 160.433594 44.234375 160.171875 C 43.859375 159.910156 43.464844 159.667969 43.0625 159.449219 C 42.65625 159.230469 42.242188 159.03125 41.816406 158.855469 C 41.390625 158.683594 40.957031 158.53125 40.511719 158.402344 C 40.070312 158.277344 39.621094 158.175781 39.167969 158.09375 C 38.714844 158.015625 38.257812 157.964844 37.796875 157.933594 C 37.339844 157.90625 36.878906 157.902344 36.417969 157.925781 C 35.957031 157.945312 35.5 157.992188 35.046875 158.0625 C 34.589844 158.132812 34.140625 158.230469 33.699219 158.351562 C 33.253906 158.472656 32.816406 158.613281 32.386719 158.78125 C 31.957031 158.949219 31.539062 159.140625 31.132812 159.355469 C 30.722656 159.570312 30.328125 159.804688 29.945312 160.058594 C 29.5625 160.316406 29.195312 160.59375 28.84375 160.890625 C 28.492188 161.1875 28.15625 161.5 27.839844 161.835938 C 27.523438 162.167969 27.222656 162.515625 26.941406 162.882812 C 26.664062 163.246094 26.402344 163.628906 26.164062 164.023438 C 25.925781 164.414062 25.710938 164.820312 25.515625 165.238281 C 25.320312 165.65625 25.152344 166.082031 25.003906 166.519531 C 24.855469 166.957031 24.730469 167.398438 24.632812 167.847656 C 24.53125 168.296875 24.457031 168.75 24.40625 169.207031 C 24.359375 169.667969 24.332031 170.125 24.332031 170.585938 C 24.332031 171.046875 24.359375 171.507812 24.40625 171.964844 C 24.457031 172.421875 24.53125 172.875 24.632812 173.324219 C 24.730469 173.773438 24.855469 174.21875 25.003906 174.652344 C 25.152344 175.089844 25.320312 175.515625 25.515625 175.933594 C 25.710938 176.351562 25.925781 176.757812 26.164062 177.152344 C 26.402344 177.542969 26.664062 177.925781 26.941406 178.289062 C 27.222656 178.65625 27.523438 179.003906 27.839844 179.339844 C 28.15625 179.671875 28.492188 179.988281 28.84375 180.28125 C 29.195312 180.578125 29.5625 180.855469 29.945312 181.113281 C 30.328125 181.371094 30.722656 181.605469 31.132812 181.816406 C 31.539062 182.03125 31.957031 182.222656 32.386719 182.390625 C 32.816406 182.558594 33.253906 182.703125 33.699219 182.820312 C 34.140625 182.941406 34.589844 183.039062 35.046875 183.109375 C 35.5 183.179688 35.957031 183.226562 36.417969 183.25 C 36.878906 183.269531 37.339844 183.265625 37.796875 183.238281 C 38.257812 183.207031 38.714844 183.15625 39.167969 183.078125 C 39.621094 183 40.070312 182.894531 40.511719 182.769531 C 40.957031 182.640625 41.390625 182.488281 41.816406 182.316406 C 42.242188 182.140625 42.65625 181.945312 43.0625 181.722656 C 43.464844 181.503906 43.859375 181.261719 44.234375 181 C 44.613281 180.738281 44.976562 180.457031 45.324219 180.152344 C 45.671875 179.851562 46.003906 179.53125 46.316406 179.191406 C 46.628906 178.855469 46.921875 178.5 47.195312 178.128906 C 47.46875 177.761719 47.722656 177.378906 47.953125 176.980469 Z M 128.339844 176.980469 " fill-opacity="1" fill-rule="nonzero"/></svg>