<svg xmlns="http://www.w3.org/2000/svg" xmlns:xlink="http://www.w3.org/1999/xlink" width="1000" zoomAndPan="magnify" viewBox="0 0 750 225" height="300" preserveAspectRatio="xMidYMid meet" version="1.0"><defs><g/><clipPath id="9af9e61a46"><path d="M 35 20.019531 L 186 20.019531 L 186 159 L 35 159 Z M 35 20.019531 " clip-rule="nonzero"/></clipPath><clipPath id="2208d63fc5"><path d="M 52 66 L 203.714844 66 L 203.714844 205 L 52 205 Z M 52 66 " clip-rule="nonzero"/></clipPath></defs><g fill="#ecf0f1" fill-opacity="1"><g transform="translate(226.563315, 133.845355)"><g><path d="M 5.984375 -1.078125 L 5.984375 -2.34375 C 5.984375 -3.0625 5.625 -3.421875 4.90625 -3.421875 L 3.640625 -3.421875 C 2.921875 -3.421875 2.5625 -3.78125 2.5625 -4.5 L 2.5625 -14.3125 C 2.5625 -15.03125 2.921875 -15.390625 3.640625 -15.390625 L 16.875 -15.390625 C 17.59375 -15.390625 17.953125 -15.03125 17.953125 -14.3125 L 17.953125 -4.5 C 17.953125 -3.78125 18.3125 -3.421875 19.03125 -3.421875 L 20.296875 -3.421875 C 21.015625 -3.421875 21.375 -3.78125 21.375 -4.5 L 21.375 -5.75 C 21.375 -6.476562 21.734375 -6.84375 22.453125 -6.84375 L 24.34375 -6.84375 C 25.0625 -6.84375 25.421875 -7.203125 25.421875 -7.921875 L 25.421875 -21.484375 C 25.421875 -22.210938 25.0625 -22.578125 24.34375 -22.578125 L 23.078125 -22.578125 C 22.359375 -22.578125 22 -22.9375 22 -23.65625 L 22 -24.90625 C 22 -25.625 21.640625 -25.984375 20.921875 -25.984375 L 11.109375 -25.984375 C 10.390625 -25.984375 10.03125 -26.347656 10.03125 -27.078125 L 10.03125 -28.328125 C 10.03125 -29.046875 9.671875 -29.40625 8.953125 -29.40625 L 7.6875 -29.40625 C 6.96875 -29.40625 6.609375 -29.769531 6.609375 -30.5 L 6.609375 -31.6875 C 6.609375 -32.445312 6.226562 -32.828125 5.46875 -32.828125 L 4.328125 -32.828125 C 3.566406 -32.828125 3.1875 -33.207031 3.1875 -33.96875 L 3.1875 -45.375 C 3.1875 -46.132812 3.566406 -46.515625 4.328125 -46.515625 L 5.46875 -46.515625 C 6.226562 -46.515625 6.609375 -46.894531 6.609375 -47.65625 L 6.609375 -48.84375 C 6.609375 -49.570312 6.96875 -49.9375 7.6875 -49.9375 L 8.953125 -49.9375 C 9.671875 -49.9375 10.03125 -50.296875 10.03125 -51.015625 L 10.03125 -52.265625 C 10.03125 -52.992188 10.390625 -53.359375 11.109375 -53.359375 L 32.3125 -53.359375 C 33.039062 -53.359375 33.40625 -52.992188 33.40625 -52.265625 L 33.40625 -51.015625 C 33.40625 -50.296875 33.765625 -49.9375 34.484375 -49.9375 L 38.59375 -49.9375 C 39.3125 -49.9375 39.671875 -49.570312 39.671875 -48.84375 L 39.671875 -39.046875 C 39.671875 -38.328125 39.3125 -37.96875 38.59375 -37.96875 L 29.921875 -37.96875 C 29.203125 -37.96875 28.84375 -38.328125 28.84375 -39.046875 L 28.84375 -40.296875 C 28.84375 -41.015625 28.484375 -41.375 27.765625 -41.375 L 26.5 -41.375 C 25.78125 -41.375 25.421875 -41.738281 25.421875 -42.46875 L 25.421875 -48.84375 C 25.421875 -49.570312 25.0625 -49.9375 24.34375 -49.9375 L 23.078125 -49.9375 C 22.359375 -49.9375 22 -49.570312 22 -48.84375 L 22 -47.59375 C 22 -46.875 21.640625 -46.515625 20.921875 -46.515625 L 19.671875 -46.515625 C 18.941406 -46.515625 18.578125 -46.148438 18.578125 -45.421875 L 18.578125 -33.921875 C 18.578125 -33.191406 18.941406 -32.828125 19.671875 -32.828125 L 21.484375 -32.828125 C 22.210938 -32.828125 22.578125 -32.46875 22.578125 -31.75 L 22.578125 -30.5 C 22.578125 -29.769531 22.9375 -29.40625 23.65625 -29.40625 L 32.890625 -29.40625 C 33.609375 -29.40625 33.96875 -29.046875 33.96875 -28.328125 L 33.96875 -27.078125 C 33.96875 -26.347656 34.332031 -25.984375 35.0625 -25.984375 L 36.3125 -25.984375 C 37.03125 -25.984375 37.390625 -25.625 37.390625 -24.90625 L 37.390625 -23.71875 C 37.390625 -22.957031 37.769531 -22.578125 38.53125 -22.578125 L 39.671875 -22.578125 C 40.429688 -22.578125 40.8125 -22.195312 40.8125 -21.4375 L 40.8125 -7.984375 C 40.8125 -7.222656 40.429688 -6.84375 39.671875 -6.84375 L 38.53125 -6.84375 C 37.769531 -6.84375 37.390625 -6.460938 37.390625 -5.703125 L 37.390625 -4.5 C 37.390625 -3.78125 37.03125 -3.421875 36.3125 -3.421875 L 35.0625 -3.421875 C 34.332031 -3.421875 33.96875 -3.0625 33.96875 -2.34375 L 33.96875 -1.078125 C 33.96875 -0.359375 33.628906 0 32.953125 0 L 7.015625 0 C 6.328125 0 5.984375 -0.359375 5.984375 -1.078125 Z M 5.984375 -1.078125 "/></g></g></g><g fill="#ecf0f1" fill-opacity="1"><g transform="translate(281.454292, 133.845355)"><g><path d="M 3.984375 -1.078125 L 3.984375 -52.265625 C 3.984375 -52.992188 4.347656 -53.359375 5.078125 -53.359375 L 18.296875 -53.359375 C 19.015625 -53.359375 19.375 -52.992188 19.375 -52.265625 L 19.375 -1.078125 C 19.375 -0.359375 19.015625 0 18.296875 0 L 5.078125 0 C 4.347656 0 3.984375 -0.359375 3.984375 -1.078125 Z M 21.375 -68.0625 L 21.375 -64.640625 C 21.375 -63.921875 21.015625 -63.5625 20.296875 -63.5625 L 9.796875 -63.5625 C 9.078125 -63.5625 8.71875 -63.195312 8.71875 -62.46875 L 8.71875 -59.046875 C 8.71875 -58.097656 8.242188 -57.625 7.296875 -57.625 L 3.421875 -57.625 C 2.472656 -57.625 2 -58.097656 2 -59.046875 L 2 -62.46875 C 2 -63.195312 2.359375 -63.5625 3.078125 -63.5625 L 6.15625 -63.5625 C 6.875 -63.5625 7.234375 -63.921875 7.234375 -64.640625 L 7.234375 -68.0625 C 7.234375 -68.78125 7.597656 -69.140625 8.328125 -69.140625 L 20.296875 -69.140625 C 21.015625 -69.140625 21.375 -68.78125 21.375 -68.0625 Z M 21.375 -68.0625 "/></g></g></g><g fill="#ecf0f1" fill-opacity="1"><g transform="translate(315.768279, 133.845355)"><g><path d="M 15.453125 -1.078125 L 15.453125 -48.90625 C 15.453125 -49.625 15.085938 -49.984375 14.359375 -49.984375 L 13.046875 -49.984375 C 12.328125 -49.984375 11.96875 -49.625 11.96875 -48.90625 L 11.96875 -42.46875 C 11.96875 -41.738281 11.609375 -41.375 10.890625 -41.375 L 9.640625 -41.375 C 8.910156 -41.375 8.546875 -41.015625 8.546875 -40.296875 L 8.546875 -39.046875 C 8.546875 -38.328125 8.1875 -37.96875 7.46875 -37.96875 L 2.796875 -37.96875 C 2.066406 -37.96875 1.703125 -38.328125 1.703125 -39.046875 L 1.703125 -52.265625 C 1.703125 -52.992188 2.066406 -53.359375 2.796875 -53.359375 L 43.484375 -53.359375 C 44.210938 -53.359375 44.578125 -52.992188 44.578125 -52.265625 L 44.578125 -39.046875 C 44.578125 -38.328125 44.210938 -37.96875 43.484375 -37.96875 L 38.8125 -37.96875 C 38.09375 -37.96875 37.734375 -38.328125 37.734375 -39.046875 L 37.734375 -40.296875 C 37.734375 -41.015625 37.375 -41.375 36.65625 -41.375 L 35.390625 -41.375 C 34.671875 -41.375 34.3125 -41.738281 34.3125 -42.46875 L 34.3125 -48.90625 C 34.3125 -49.625 33.953125 -49.984375 33.234375 -49.984375 L 31.921875 -49.984375 C 31.203125 -49.984375 30.84375 -49.625 30.84375 -48.90625 L 30.84375 -1.078125 C 30.84375 -0.359375 30.476562 0 29.75 0 L 16.53125 0 C 15.8125 0 15.453125 -0.359375 15.453125 -1.078125 Z M 15.453125 -1.078125 "/></g></g></g><g fill="#ecf0f1" fill-opacity="1"><g transform="translate(372.996254, 133.845355)"><g><path d="M 3.984375 -1.078125 L 3.984375 -38.59375 C 3.984375 -39.3125 4.347656 -39.671875 5.078125 -39.671875 L 6.953125 -39.671875 C 7.671875 -39.671875 8.03125 -40.03125 8.03125 -40.75 L 8.03125 -42.015625 C 8.03125 -42.734375 8.394531 -43.09375 9.125 -43.09375 L 10.375 -43.09375 C 11.09375 -43.09375 11.453125 -43.453125 11.453125 -44.171875 L 11.453125 -45.421875 C 11.453125 -46.148438 11.816406 -46.515625 12.546875 -46.515625 L 13.796875 -46.515625 C 14.515625 -46.515625 14.875 -46.875 14.875 -47.59375 L 14.875 -48.84375 C 14.875 -49.570312 15.234375 -49.9375 15.953125 -49.9375 L 16.53125 -49.9375 C 17.25 -49.9375 17.609375 -50.296875 17.609375 -51.015625 L 17.609375 -52.265625 C 17.609375 -52.992188 17.972656 -53.359375 18.703125 -53.359375 L 37.109375 -53.359375 C 37.828125 -53.359375 38.1875 -52.992188 38.1875 -52.265625 L 38.1875 -51.015625 C 38.1875 -50.296875 38.546875 -49.9375 39.265625 -49.9375 L 40.53125 -49.9375 C 41.25 -49.9375 41.609375 -49.570312 41.609375 -48.84375 L 41.609375 -1.078125 C 41.609375 -0.359375 41.25 0 40.53125 0 L 27.296875 0 C 26.578125 0 26.21875 -0.359375 26.21875 -1.078125 L 26.21875 -19.203125 C 26.21875 -19.929688 25.859375 -20.296875 25.140625 -20.296875 L 23.890625 -20.296875 C 23.160156 -20.296875 22.796875 -19.929688 22.796875 -19.203125 L 22.796875 -17.953125 C 22.796875 -17.234375 22.4375 -16.875 21.71875 -16.875 L 20.46875 -16.875 C 19.738281 -16.875 19.375 -16.507812 19.375 -15.78125 L 19.375 -1.078125 C 19.375 -0.359375 19.015625 0 18.296875 0 L 5.078125 0 C 4.347656 0 3.984375 -0.359375 3.984375 -1.078125 Z M 20.46875 -23.375 L 21.71875 -23.375 C 22.4375 -23.375 22.796875 -23.734375 22.796875 -24.453125 L 22.796875 -25.703125 C 22.796875 -26.429688 23.160156 -26.796875 23.890625 -26.796875 L 25.140625 -26.796875 C 25.859375 -26.796875 26.21875 -27.15625 26.21875 -27.875 L 26.21875 -48.84375 C 26.21875 -49.570312 25.859375 -49.9375 25.140625 -49.9375 L 23.890625 -49.9375 C 23.160156 -49.9375 22.796875 -49.570312 22.796875 -48.84375 L 22.796875 -47.59375 C 22.796875 -46.875 22.4375 -46.515625 21.71875 -46.515625 L 20.46875 -46.515625 C 19.738281 -46.515625 19.375 -46.148438 19.375 -45.421875 L 19.375 -24.453125 C 19.375 -23.734375 19.738281 -23.375 20.46875 -23.375 Z M 20.46875 -23.375 "/></g></g></g><g fill="#ecf0f1" fill-opacity="1"><g transform="translate(429.54025, 133.845355)"><g><path d="M 19.375 -48.84375 L 19.375 -27.53125 C 19.375 -26.8125 19.738281 -26.453125 20.46875 -26.453125 L 21.71875 -26.453125 C 22.4375 -26.453125 22.796875 -26.8125 22.796875 -27.53125 L 22.796875 -28.78125 C 22.796875 -29.507812 23.160156 -29.875 23.890625 -29.875 L 25.140625 -29.875 C 25.859375 -29.875 26.21875 -30.234375 26.21875 -30.953125 L 26.21875 -45.421875 C 26.21875 -46.148438 25.859375 -46.515625 25.140625 -46.515625 L 23.890625 -46.515625 C 23.160156 -46.515625 22.796875 -46.875 22.796875 -47.59375 L 22.796875 -48.84375 C 22.796875 -49.570312 22.4375 -49.9375 21.71875 -49.9375 L 20.46875 -49.9375 C 19.738281 -49.9375 19.375 -49.570312 19.375 -48.84375 Z M 3.984375 -1.078125 L 3.984375 -52.265625 C 3.984375 -52.992188 4.347656 -53.359375 5.078125 -53.359375 L 33.6875 -53.359375 C 34.40625 -53.359375 34.765625 -52.992188 34.765625 -52.265625 L 34.765625 -51.015625 C 34.765625 -50.296875 35.128906 -49.9375 35.859375 -49.9375 L 37.109375 -49.9375 C 37.828125 -49.9375 38.1875 -49.570312 38.1875 -48.84375 L 38.1875 -47.59375 C 38.1875 -46.875 38.546875 -46.515625 39.265625 -46.515625 L 40.53125 -46.515625 C 41.25 -46.515625 41.609375 -46.148438 41.609375 -45.421875 L 41.609375 -30.953125 C 41.609375 -30.234375 41.25 -29.875 40.53125 -29.875 L 39.265625 -29.875 C 38.546875 -29.875 38.1875 -29.507812 38.1875 -28.78125 L 38.1875 -27.53125 C 38.1875 -26.8125 37.828125 -26.453125 37.109375 -26.453125 L 30.71875 -26.453125 C 30 -26.453125 29.640625 -26.085938 29.640625 -25.359375 L 29.640625 -24.109375 C 29.640625 -23.390625 30 -23.03125 30.71875 -23.03125 L 37.109375 -23.03125 C 37.828125 -23.03125 38.1875 -22.664062 38.1875 -21.9375 L 38.1875 -20.6875 C 38.1875 -19.96875 38.546875 -19.609375 39.265625 -19.609375 L 40.53125 -19.609375 C 41.25 -19.609375 41.609375 -19.25 41.609375 -18.53125 L 41.609375 -1.078125 C 41.609375 -0.359375 41.25 0 40.53125 0 L 27.296875 0 C 26.578125 0 26.21875 -0.359375 26.21875 -1.078125 L 26.21875 -18.53125 C 26.21875 -19.25 25.859375 -19.609375 25.140625 -19.609375 L 23.890625 -19.609375 C 23.160156 -19.609375 22.796875 -19.96875 22.796875 -20.6875 L 22.796875 -21.9375 C 22.796875 -22.664062 22.4375 -23.03125 21.71875 -23.03125 L 20.46875 -23.03125 C 19.738281 -23.03125 19.375 -22.664062 19.375 -21.9375 L 19.375 -1.078125 C 19.375 -0.359375 19.015625 0 18.296875 0 L 5.078125 0 C 4.347656 0 3.984375 -0.359375 3.984375 -1.078125 Z M 3.984375 -1.078125 "/></g></g></g><g fill="#ecf0f1" fill-opacity="1"><g transform="translate(486.084223, 133.845355)"><g><path d="M 3.984375 -1.078125 L 3.984375 -52.265625 C 3.984375 -52.992188 4.347656 -53.359375 5.078125 -53.359375 L 18.296875 -53.359375 C 19.015625 -53.359375 19.375 -52.992188 19.375 -52.265625 L 19.375 -1.078125 C 19.375 -0.359375 19.015625 0 18.296875 0 L 5.078125 0 C 4.347656 0 3.984375 -0.359375 3.984375 -1.078125 Z M 21.375 -68.0625 L 21.375 -64.640625 C 21.375 -63.921875 21.015625 -63.5625 20.296875 -63.5625 L 9.796875 -63.5625 C 9.078125 -63.5625 8.71875 -63.195312 8.71875 -62.46875 L 8.71875 -59.046875 C 8.71875 -58.097656 8.242188 -57.625 7.296875 -57.625 L 3.421875 -57.625 C 2.472656 -57.625 2 -58.097656 2 -59.046875 L 2 -62.46875 C 2 -63.195312 2.359375 -63.5625 3.078125 -63.5625 L 6.15625 -63.5625 C 6.875 -63.5625 7.234375 -63.921875 7.234375 -64.640625 L 7.234375 -68.0625 C 7.234375 -68.78125 7.597656 -69.140625 8.328125 -69.140625 L 20.296875 -69.140625 C 21.015625 -69.140625 21.375 -68.78125 21.375 -68.0625 Z M 21.375 -68.0625 "/></g></g></g><g fill="#ecf0f1" fill-opacity="1"><g transform="translate(520.39821, 133.845355)"><g><path d="M 3.984375 -1.078125 L 3.984375 -52.265625 C 3.984375 -52.992188 4.347656 -53.359375 5.078125 -53.359375 L 18.296875 -53.359375 C 19.015625 -53.359375 19.375 -52.992188 19.375 -52.265625 L 19.375 -31.515625 C 19.375 -30.796875 19.738281 -30.4375 20.46875 -30.4375 L 21.71875 -30.4375 C 22.4375 -30.4375 22.796875 -30.796875 22.796875 -31.515625 L 22.796875 -32.78125 C 22.796875 -33.5 23.160156 -33.859375 23.890625 -33.859375 L 25.140625 -33.859375 C 25.859375 -33.859375 26.21875 -34.21875 26.21875 -34.9375 L 26.21875 -52.265625 C 26.21875 -52.992188 26.578125 -53.359375 27.296875 -53.359375 L 40.53125 -53.359375 C 41.25 -53.359375 41.609375 -52.992188 41.609375 -52.265625 L 41.609375 -31.515625 C 41.609375 -30.796875 41.25 -30.4375 40.53125 -30.4375 L 30.71875 -30.4375 C 30 -30.4375 29.640625 -30.078125 29.640625 -29.359375 L 29.640625 -28.09375 C 29.640625 -27.375 30 -27.015625 30.71875 -27.015625 L 37.109375 -27.015625 C 37.828125 -27.015625 38.1875 -26.65625 38.1875 -25.9375 L 38.1875 -24.6875 C 38.1875 -23.957031 38.546875 -23.59375 39.265625 -23.59375 L 40.53125 -23.59375 C 41.25 -23.59375 41.609375 -23.234375 41.609375 -22.515625 L 41.609375 -1.078125 C 41.609375 -0.359375 41.25 0 40.53125 0 L 27.296875 0 C 26.578125 0 26.21875 -0.359375 26.21875 -1.078125 L 26.21875 -22.515625 C 26.21875 -23.234375 25.859375 -23.59375 25.140625 -23.59375 L 23.890625 -23.59375 C 23.160156 -23.59375 22.796875 -23.957031 22.796875 -24.6875 L 22.796875 -25.9375 C 22.796875 -26.65625 22.4375 -27.015625 21.71875 -27.015625 L 20.46875 -27.015625 C 19.738281 -27.015625 19.375 -26.65625 19.375 -25.9375 L 19.375 -1.078125 C 19.375 -0.359375 19.015625 0 18.296875 0 L 5.078125 0 C 4.347656 0 3.984375 -0.359375 3.984375 -1.078125 Z M 3.984375 -1.078125 "/></g></g></g><g fill="#ecf0f1" fill-opacity="1"><g transform="translate(576.942206, 133.845355)"><g><path d="M 6.265625 -1.078125 L 6.265625 -1.203125 C 6.265625 -1.921875 5.867188 -2.28125 5.078125 -2.28125 C 4.347656 -2.28125 3.984375 -2.640625 3.984375 -3.359375 L 3.984375 -12.078125 C 3.984375 -12.765625 4.382812 -13.109375 5.1875 -13.109375 C 5.90625 -13.109375 6.265625 -13.523438 6.265625 -14.359375 C 6.265625 -15.046875 6.628906 -15.390625 7.359375 -15.390625 L 16.015625 -15.390625 C 16.734375 -15.390625 17.09375 -15.007812 17.09375 -14.25 C 17.09375 -13.488281 17.492188 -13.109375 18.296875 -13.109375 C 19.015625 -13.109375 19.375 -12.765625 19.375 -12.078125 L 19.375 -3.359375 C 19.375 -2.640625 18.976562 -2.28125 18.1875 -2.28125 C 17.457031 -2.28125 17.09375 -1.878906 17.09375 -1.078125 C 17.09375 -0.359375 16.734375 0 16.015625 0 L 7.359375 0 C 6.628906 0 6.265625 -0.359375 6.265625 -1.078125 Z M 6.265625 -1.078125 "/></g></g></g><g fill="#ecf0f1" fill-opacity="1"><g transform="translate(611.25617, 133.845355)"><g><path d="M 10.828125 -1.078125 L 10.828125 -2.34375 C 10.828125 -3.0625 10.46875 -3.421875 9.75 -3.421875 L 8.5 -3.421875 C 7.769531 -3.421875 7.40625 -3.78125 7.40625 -4.5 L 7.40625 -5.75 C 7.40625 -6.476562 7.046875 -6.84375 6.328125 -6.84375 L 5.078125 -6.84375 C 4.347656 -6.84375 3.984375 -7.203125 3.984375 -7.921875 L 3.984375 -45.421875 C 3.984375 -46.148438 4.347656 -46.515625 5.078125 -46.515625 L 6.328125 -46.515625 C 7.046875 -46.515625 7.40625 -46.875 7.40625 -47.59375 L 7.40625 -48.84375 C 7.40625 -49.570312 7.769531 -49.9375 8.5 -49.9375 L 9.75 -49.9375 C 10.46875 -49.9375 10.828125 -50.296875 10.828125 -51.015625 L 10.828125 -52.265625 C 10.828125 -52.992188 11.1875 -53.359375 11.90625 -53.359375 L 36.1875 -53.359375 C 36.945312 -53.359375 37.328125 -52.976562 37.328125 -52.21875 L 37.328125 -51.078125 C 37.328125 -50.316406 37.707031 -49.9375 38.46875 -49.9375 L 40.46875 -49.9375 C 41.226562 -49.9375 41.609375 -49.554688 41.609375 -48.796875 L 41.609375 -39.109375 C 41.609375 -38.347656 41.226562 -37.96875 40.46875 -37.96875 L 30.78125 -37.96875 C 30.019531 -37.96875 29.640625 -38.347656 29.640625 -39.109375 L 29.640625 -40.296875 C 29.640625 -41.015625 29.28125 -41.375 28.5625 -41.375 L 27.359375 -41.375 C 26.597656 -41.375 26.21875 -41.753906 26.21875 -42.515625 L 26.21875 -48.84375 C 26.21875 -49.570312 25.859375 -49.9375 25.140625 -49.9375 L 23.890625 -49.9375 C 23.160156 -49.9375 22.796875 -49.570312 22.796875 -48.84375 L 22.796875 -47.59375 C 22.796875 -46.875 22.4375 -46.515625 21.71875 -46.515625 L 20.46875 -46.515625 C 19.738281 -46.515625 19.375 -46.148438 19.375 -45.421875 L 19.375 -7.921875 C 19.375 -7.203125 19.738281 -6.84375 20.46875 -6.84375 L 21.71875 -6.84375 C 22.4375 -6.84375 22.796875 -6.476562 22.796875 -5.75 L 22.796875 -4.5 C 22.796875 -3.78125 23.160156 -3.421875 23.890625 -3.421875 L 25.140625 -3.421875 C 25.859375 -3.421875 26.21875 -3.78125 26.21875 -4.5 L 26.21875 -14.25 C 26.21875 -15.007812 26.597656 -15.390625 27.359375 -15.390625 L 40.46875 -15.390625 C 41.226562 -15.390625 41.609375 -15.007812 41.609375 -14.25 L 41.609375 -4.5625 C 41.609375 -3.800781 41.226562 -3.421875 40.46875 -3.421875 L 39.328125 -3.421875 C 38.566406 -3.421875 38.1875 -3.039062 38.1875 -2.28125 L 38.1875 -1.140625 C 38.1875 -0.378906 37.804688 0 37.046875 0 L 11.90625 0 C 11.1875 0 10.828125 -0.359375 10.828125 -1.078125 Z M 10.828125 -1.078125 "/></g></g></g><g fill="#ecf0f1" fill-opacity="1"><g transform="translate(667.230136, 133.845355)"><g><path d="M 2.84375 -1.078125 L 2.84375 -24.5625 C 2.84375 -25.289062 3.207031 -25.65625 3.9375 -25.65625 L 5.1875 -25.65625 C 5.90625 -25.65625 6.265625 -26.015625 6.265625 -26.734375 L 6.265625 -27.984375 C 6.265625 -28.703125 6.628906 -29.0625 7.359375 -29.0625 L 18.859375 -29.0625 C 19.585938 -29.0625 19.953125 -29.425781 19.953125 -30.15625 L 19.953125 -31.40625 C 19.953125 -32.125 20.3125 -32.484375 21.03125 -32.484375 L 24 -32.484375 C 24.71875 -32.484375 25.078125 -32.847656 25.078125 -33.578125 L 25.078125 -45.421875 C 25.078125 -46.148438 24.71875 -46.515625 24 -46.515625 L 22.75 -46.515625 C 22.019531 -46.515625 21.65625 -46.875 21.65625 -47.59375 L 21.65625 -48.84375 C 21.65625 -49.570312 21.296875 -49.9375 20.578125 -49.9375 L 19.328125 -49.9375 C 18.597656 -49.9375 18.234375 -49.570312 18.234375 -48.84375 L 18.234375 -42.46875 C 18.234375 -41.738281 17.875 -41.375 17.15625 -41.375 L 15.90625 -41.375 C 15.175781 -41.375 14.8125 -41.015625 14.8125 -40.296875 L 14.8125 -39.046875 C 14.8125 -38.328125 14.453125 -37.96875 13.734375 -37.96875 L 3.9375 -37.96875 C 3.207031 -37.96875 2.84375 -38.328125 2.84375 -39.046875 L 2.84375 -52.265625 C 2.84375 -52.992188 3.207031 -53.359375 3.9375 -53.359375 L 37.671875 -53.359375 C 38.398438 -53.359375 38.765625 -52.992188 38.765625 -52.265625 L 38.765625 -33.578125 C 38.765625 -32.847656 38.398438 -32.484375 37.671875 -32.484375 L 36.421875 -32.484375 C 35.703125 -32.484375 35.34375 -32.125 35.34375 -31.40625 L 35.34375 -30.15625 C 35.34375 -29.425781 34.976562 -29.0625 34.25 -29.0625 L 33 -29.0625 C 32.28125 -29.0625 31.921875 -28.703125 31.921875 -27.984375 L 31.921875 -26.734375 C 31.921875 -26.015625 31.5625 -25.65625 30.84375 -25.65625 L 17.671875 -25.65625 C 16.953125 -25.65625 16.59375 -25.289062 16.59375 -24.5625 L 16.59375 -7.921875 C 16.59375 -7.203125 16.953125 -6.84375 17.671875 -6.84375 L 18.859375 -6.84375 C 19.585938 -6.84375 19.953125 -6.476562 19.953125 -5.75 L 19.953125 -4.5 C 19.953125 -3.78125 20.3125 -3.421875 21.03125 -3.421875 L 22.28125 -3.421875 C 23.007812 -3.421875 23.375 -3.78125 23.375 -4.5 L 23.375 -14.3125 C 23.375 -15.03125 23.734375 -15.390625 24.453125 -15.390625 L 37.671875 -15.390625 C 38.398438 -15.390625 38.765625 -15.03125 38.765625 -14.3125 L 38.765625 -1.078125 C 38.765625 -0.359375 38.398438 0 37.671875 0 L 3.9375 0 C 3.207031 0 2.84375 -0.359375 2.84375 -1.078125 Z M 2.84375 -1.078125 "/></g></g></g><g fill="#ecf0f1" fill-opacity="1"><g transform="translate(326.46447, 117.209391)"><g><path d="M 2.28125 -51.703125 C 2.28125 -52.421875 2.640625 -52.78125 3.359375 -52.78125 L 9.640625 -52.78125 C 10.359375 -52.78125 10.71875 -52.421875 10.71875 -51.703125 L 10.71875 -48.28125 C 10.71875 -47.5625 11.078125 -47.203125 11.796875 -47.203125 L 13.390625 -47.203125 C 14.117188 -47.203125 14.484375 -47.5625 14.484375 -48.28125 L 14.484375 -51.703125 C 14.484375 -52.421875 14.84375 -52.78125 15.5625 -52.78125 L 21.828125 -52.78125 C 22.546875 -52.78125 22.90625 -52.421875 22.90625 -51.703125 L 22.90625 -48.28125 C 22.90625 -47.5625 22.546875 -47.203125 21.828125 -47.203125 L 17.046875 -47.203125 C 16.316406 -47.203125 15.953125 -46.835938 15.953125 -46.109375 L 15.953125 -42.6875 C 15.953125 -41.738281 15.476562 -41.265625 14.53125 -41.265625 L 10.65625 -41.265625 C 9.707031 -41.265625 9.234375 -41.738281 9.234375 -42.6875 L 9.234375 -46.109375 C 9.234375 -46.835938 8.875 -47.203125 8.15625 -47.203125 L 3.359375 -47.203125 C 2.640625 -47.203125 2.28125 -47.5625 2.28125 -48.28125 Z M 2.28125 -51.703125 "/></g></g></g><g fill="#ecf0f1" fill-opacity="1"><g transform="translate(362.605093, 117.209391)"><g/></g></g><g fill="#ecf0f1" fill-opacity="1"><g transform="translate(387.799088, 117.209391)"><g/></g></g><g fill="#ecf0f1" fill-opacity="1"><g transform="translate(412.993083, 117.209391)"><g/></g></g><g fill="#ecf0f1" fill-opacity="1"><g transform="translate(438.191027, 117.209391)"><g><path d="M 2.28125 -51.703125 C 2.28125 -52.421875 2.640625 -52.78125 3.359375 -52.78125 L 9.640625 -52.78125 C 10.359375 -52.78125 10.71875 -52.421875 10.71875 -51.703125 L 10.71875 -48.28125 C 10.71875 -47.5625 11.078125 -47.203125 11.796875 -47.203125 L 13.390625 -47.203125 C 14.117188 -47.203125 14.484375 -47.5625 14.484375 -48.28125 L 14.484375 -51.703125 C 14.484375 -52.421875 14.84375 -52.78125 15.5625 -52.78125 L 21.828125 -52.78125 C 22.546875 -52.78125 22.90625 -52.421875 22.90625 -51.703125 L 22.90625 -48.28125 C 22.90625 -47.5625 22.546875 -47.203125 21.828125 -47.203125 L 17.046875 -47.203125 C 16.316406 -47.203125 15.953125 -46.835938 15.953125 -46.109375 L 15.953125 -42.6875 C 15.953125 -41.738281 15.476562 -41.265625 14.53125 -41.265625 L 10.65625 -41.265625 C 9.707031 -41.265625 9.234375 -41.738281 9.234375 -42.6875 L 9.234375 -46.109375 C 9.234375 -46.835938 8.875 -47.203125 8.15625 -47.203125 L 3.359375 -47.203125 C 2.640625 -47.203125 2.28125 -47.5625 2.28125 -48.28125 Z M 2.28125 -51.703125 "/></g></g></g><g clip-path="url(#9af9e61a46)"><path fill="#ecf0f1" d="M 87.332031 130.613281 L 151.402344 130.613281 C 152.742188 130.613281 154.066406 130.78125 155.367188 131.113281 C 156.667969 131.445312 157.910156 131.9375 159.085938 132.582031 C 160.265625 133.226562 161.34375 134.007812 162.328125 134.925781 C 163.308594 135.84375 164.160156 136.867188 164.882812 137.996094 C 164.574219 138.3125 164.28125 138.644531 164.003906 138.992188 C 163.726562 139.339844 163.472656 139.703125 163.234375 140.078125 C 163 140.453125 162.78125 140.839844 162.589844 141.238281 C 162.394531 141.636719 162.222656 142.046875 162.070312 142.464844 C 161.917969 142.882812 161.792969 143.304688 161.6875 143.738281 C 161.582031 144.167969 161.5 144.605469 161.445312 145.042969 C 161.386719 145.484375 161.351562 145.925781 161.34375 146.371094 C 161.335938 146.8125 161.347656 147.257812 161.386719 147.699219 C 161.425781 148.140625 161.488281 148.578125 161.574219 149.015625 C 161.660156 149.449219 161.765625 149.878906 161.898438 150.304688 C 162.03125 150.726562 162.1875 151.140625 162.363281 151.546875 C 162.539062 151.957031 162.738281 152.351562 162.960938 152.738281 C 163.179688 153.121094 163.417969 153.496094 163.679688 153.855469 C 163.941406 154.214844 164.21875 154.558594 164.515625 154.886719 C 164.816406 155.214844 165.128906 155.527344 165.460938 155.824219 C 165.792969 156.117188 166.136719 156.394531 166.5 156.652344 C 166.859375 156.910156 167.234375 157.148438 167.621094 157.367188 C 168.007812 157.582031 168.40625 157.777344 168.816406 157.953125 C 169.222656 158.125 169.640625 158.277344 170.0625 158.40625 C 170.488281 158.535156 170.917969 158.640625 171.355469 158.726562 C 171.789062 158.808594 172.230469 158.867188 172.671875 158.902344 C 173.113281 158.9375 173.558594 158.949219 174 158.933594 C 174.445312 158.921875 174.886719 158.886719 175.328125 158.824219 C 175.765625 158.761719 176.199219 158.679688 176.632812 158.570312 C 177.0625 158.464844 177.484375 158.332031 177.902344 158.179688 C 178.316406 158.027344 178.726562 157.851562 179.121094 157.652344 C 179.519531 157.453125 179.90625 157.238281 180.277344 156.996094 C 180.652344 156.757812 181.011719 156.5 181.359375 156.222656 C 181.703125 155.941406 182.035156 155.644531 182.347656 155.332031 C 182.660156 155.019531 182.957031 154.6875 183.234375 154.34375 C 183.511719 153.996094 183.769531 153.636719 184.011719 153.261719 C 184.25 152.890625 184.46875 152.503906 184.664062 152.105469 C 184.863281 151.707031 185.035156 151.300781 185.191406 150.882812 C 185.34375 150.46875 185.472656 150.042969 185.582031 149.613281 C 185.6875 149.183594 185.773438 148.75 185.832031 148.308594 C 185.894531 147.867188 185.929688 147.425781 185.941406 146.984375 C 185.953125 146.539062 185.941406 146.097656 185.90625 145.65625 C 185.871094 145.210938 185.8125 144.773438 185.730469 144.335938 C 185.648438 143.902344 185.539062 143.472656 185.410156 143.046875 C 185.28125 142.621094 185.128906 142.207031 184.953125 141.796875 C 184.78125 141.390625 184.585938 140.992188 184.367188 140.605469 C 184.148438 140.21875 183.910156 139.84375 183.652344 139.484375 C 183.394531 139.121094 183.117188 138.777344 182.824219 138.445312 C 182.527344 138.113281 182.214844 137.800781 181.886719 137.503906 C 181.554688 137.207031 181.210938 136.925781 180.851562 136.667969 C 180.492188 136.40625 180.121094 136.167969 179.734375 135.949219 C 179.347656 135.726562 178.953125 135.53125 178.546875 135.351562 C 178.136719 135.175781 177.722656 135.023438 177.300781 134.890625 C 176.734375 133.652344 176.089844 132.460938 175.355469 131.316406 C 174.621094 130.171875 173.808594 129.085938 172.921875 128.058594 C 172.03125 127.027344 171.074219 126.070312 170.050781 125.175781 C 169.023438 124.285156 167.9375 123.472656 166.796875 122.734375 C 165.652344 122 164.464844 121.347656 163.226562 120.78125 C 161.992188 120.214844 160.722656 119.742188 159.417969 119.355469 C 158.113281 118.972656 156.789062 118.683594 155.445312 118.488281 C 154.097656 118.292969 152.746094 118.195312 151.386719 118.195312 L 87.332031 118.195312 C 86.027344 118.195312 84.726562 118.132812 83.429688 118.003906 C 82.132812 117.875 80.84375 117.683594 79.5625 117.429688 C 78.285156 117.175781 77.023438 116.859375 75.773438 116.480469 C 74.527344 116.101562 73.300781 115.664062 72.097656 115.164062 C 70.890625 114.664062 69.714844 114.109375 68.5625 113.496094 C 67.414062 112.878906 66.296875 112.210938 65.214844 111.484375 C 64.128906 110.761719 63.082031 109.984375 62.074219 109.160156 C 61.066406 108.332031 60.101562 107.457031 59.179688 106.535156 C 58.257812 105.613281 57.382812 104.648438 56.558594 103.640625 C 55.730469 102.632812 54.953125 101.585938 54.230469 100.503906 C 53.503906 99.417969 52.835938 98.300781 52.222656 97.152344 C 51.605469 96 51.050781 94.824219 50.550781 93.621094 C 50.050781 92.414062 49.613281 91.1875 49.234375 89.941406 C 48.855469 88.691406 48.539062 87.429688 48.285156 86.152344 C 48.03125 84.871094 47.839844 83.585938 47.710938 82.285156 C 47.585938 80.988281 47.519531 79.6875 47.519531 78.382812 C 47.519531 77.082031 47.585938 75.78125 47.710938 74.480469 C 47.839844 73.183594 48.03125 71.894531 48.285156 70.617188 C 48.539062 69.339844 48.855469 68.074219 49.234375 66.828125 C 49.613281 65.582031 50.050781 64.355469 50.550781 63.148438 C 51.050781 61.945312 51.605469 60.769531 52.222656 59.617188 C 52.835938 58.46875 53.503906 57.351562 54.230469 56.265625 C 54.953125 55.183594 55.730469 54.136719 56.558594 53.128906 C 57.382812 52.121094 58.257812 51.15625 59.179688 50.234375 C 60.101562 49.3125 61.066406 48.4375 62.074219 47.609375 C 63.082031 46.78125 64.128906 46.007812 65.214844 45.28125 C 66.296875 44.558594 67.414062 43.890625 68.5625 43.273438 C 69.714844 42.660156 70.890625 42.101562 72.097656 41.605469 C 73.300781 41.105469 74.527344 40.667969 75.773438 40.289062 C 77.023438 39.910156 78.285156 39.59375 79.5625 39.339844 C 80.84375 39.085938 82.132812 38.894531 83.429688 38.765625 C 84.726562 38.636719 86.027344 38.574219 87.332031 38.574219 L 137.714844 38.574219 C 137.941406 38.960938 138.1875 39.332031 138.453125 39.691406 C 138.71875 40.050781 139.003906 40.394531 139.308594 40.722656 C 139.609375 41.050781 139.929688 41.363281 140.269531 41.65625 C 140.605469 41.949219 140.957031 42.222656 141.324219 42.476562 C 141.691406 42.730469 142.074219 42.964844 142.464844 43.179688 C 142.859375 43.394531 143.261719 43.585938 143.675781 43.753906 C 144.089844 43.925781 144.511719 44.070312 144.941406 44.195312 C 145.371094 44.316406 145.804688 44.417969 146.246094 44.492188 C 146.6875 44.570312 147.128906 44.621094 147.574219 44.648438 C 148.023438 44.675781 148.46875 44.679688 148.914062 44.660156 C 149.363281 44.640625 149.804688 44.59375 150.246094 44.523438 C 150.6875 44.457031 151.125 44.363281 151.558594 44.246094 C 151.988281 44.128906 152.414062 43.988281 152.828125 43.828125 C 153.246094 43.664062 153.652344 43.476562 154.046875 43.269531 C 154.445312 43.0625 154.828125 42.835938 155.199219 42.585938 C 155.570312 42.335938 155.925781 42.070312 156.269531 41.78125 C 156.609375 41.492188 156.9375 41.1875 157.246094 40.863281 C 157.554688 40.539062 157.84375 40.203125 158.117188 39.847656 C 158.386719 39.492188 158.640625 39.121094 158.871094 38.738281 C 159.101562 38.359375 159.3125 37.964844 159.5 37.558594 C 159.6875 37.152344 159.855469 36.738281 160 36.316406 C 160.140625 35.890625 160.261719 35.460938 160.359375 35.023438 C 160.457031 34.589844 160.527344 34.148438 160.578125 33.703125 C 160.625 33.257812 160.648438 32.8125 160.648438 32.367188 C 160.648438 31.917969 160.625 31.472656 160.578125 31.03125 C 160.527344 30.585938 160.457031 30.144531 160.359375 29.707031 C 160.261719 29.269531 160.140625 28.839844 160 28.417969 C 159.855469 27.996094 159.6875 27.582031 159.5 27.175781 C 159.3125 26.769531 159.101562 26.375 158.871094 25.992188 C 158.640625 25.609375 158.386719 25.242188 158.117188 24.886719 C 157.84375 24.53125 157.554688 24.191406 157.246094 23.871094 C 156.9375 23.546875 156.609375 23.238281 156.269531 22.953125 C 155.925781 22.664062 155.570312 22.394531 155.199219 22.148438 C 154.828125 21.898438 154.445312 21.667969 154.046875 21.460938 C 153.652344 21.253906 153.246094 21.070312 152.828125 20.90625 C 152.414062 20.742188 151.988281 20.605469 151.558594 20.488281 C 151.125 20.371094 150.6875 20.277344 150.246094 20.207031 C 149.804688 20.140625 149.363281 20.09375 148.914062 20.074219 C 148.46875 20.050781 148.023438 20.054688 147.574219 20.082031 C 147.128906 20.109375 146.6875 20.164062 146.246094 20.238281 C 145.804688 20.316406 145.371094 20.414062 144.941406 20.539062 C 144.511719 20.664062 144.089844 20.808594 143.675781 20.980469 C 143.261719 21.148438 142.859375 21.339844 142.464844 21.554688 C 142.074219 21.765625 141.691406 22 141.324219 22.253906 C 140.957031 22.511719 140.605469 22.785156 140.269531 23.078125 C 139.929688 23.371094 139.609375 23.683594 139.308594 24.011719 C 139.003906 24.339844 138.71875 24.683594 138.453125 25.042969 C 138.1875 25.402344 137.941406 25.773438 137.714844 26.160156 L 87.332031 26.160156 C 85.621094 26.160156 83.914062 26.242188 82.210938 26.410156 C 80.507812 26.578125 78.816406 26.828125 77.136719 27.164062 C 75.460938 27.496094 73.800781 27.914062 72.164062 28.410156 C 70.527344 28.90625 68.917969 29.480469 67.335938 30.136719 C 65.753906 30.792969 64.210938 31.523438 62.699219 32.328125 C 61.191406 33.136719 59.726562 34.015625 58.300781 34.964844 C 56.878906 35.917969 55.507812 36.933594 54.183594 38.019531 C 52.859375 39.105469 51.59375 40.253906 50.382812 41.464844 C 49.175781 42.671875 48.027344 43.941406 46.941406 45.261719 C 45.855469 46.585938 44.835938 47.957031 43.886719 49.382812 C 42.9375 50.804688 42.058594 52.269531 41.25 53.78125 C 40.445312 55.289062 39.710938 56.832031 39.058594 58.414062 C 38.402344 59.996094 37.828125 61.605469 37.332031 63.242188 C 36.832031 64.878906 36.417969 66.539062 36.085938 68.214844 C 35.75 69.894531 35.5 71.585938 35.332031 73.289062 C 35.164062 74.992188 35.082031 76.699219 35.082031 78.410156 C 35.082031 80.121094 35.164062 81.828125 35.332031 83.53125 C 35.5 85.234375 35.75 86.925781 36.085938 88.605469 C 36.417969 90.28125 36.832031 91.941406 37.332031 93.578125 C 37.828125 95.214844 38.402344 96.824219 39.058594 98.40625 C 39.710938 99.988281 40.445312 101.53125 41.25 103.039062 C 42.058594 104.550781 42.9375 106.015625 43.886719 107.4375 C 44.835938 108.863281 45.855469 110.234375 46.941406 111.558594 C 48.027344 112.878906 49.175781 114.148438 50.382812 115.355469 C 51.59375 116.566406 52.859375 117.714844 54.183594 118.800781 C 55.507812 119.886719 56.878906 120.902344 58.300781 121.855469 C 59.726562 122.804688 61.191406 123.683594 62.699219 124.492188 C 64.210938 125.296875 65.753906 126.027344 67.335938 126.683594 C 68.917969 127.339844 70.527344 127.914062 72.164062 128.410156 C 73.800781 128.90625 75.460938 129.324219 77.136719 129.65625 C 78.816406 129.992188 80.507812 130.242188 82.210938 130.410156 C 83.914062 130.578125 85.621094 130.660156 87.332031 130.660156 Z M 87.332031 130.613281 " fill-opacity="1" fill-rule="nonzero"/></g><path fill="#8c52ff" d="M 97.984375 49.902344 C 97.761719 49.511719 97.519531 49.140625 97.253906 48.777344 C 96.992188 48.417969 96.707031 48.074219 96.40625 47.742188 C 96.105469 47.414062 95.785156 47.101562 95.449219 46.804688 C 95.113281 46.511719 94.761719 46.234375 94.398438 45.976562 C 94.03125 45.71875 93.652344 45.484375 93.261719 45.269531 C 92.867188 45.050781 92.464844 44.859375 92.054688 44.6875 C 91.640625 44.515625 91.21875 44.367188 90.792969 44.238281 C 90.363281 44.113281 89.929688 44.011719 89.488281 43.933594 C 89.046875 43.855469 88.605469 43.800781 88.160156 43.769531 C 87.710938 43.738281 87.265625 43.734375 86.820312 43.753906 C 86.371094 43.769531 85.929688 43.8125 85.484375 43.878906 C 85.042969 43.945312 84.605469 44.039062 84.175781 44.152344 C 83.742188 44.265625 83.316406 44.402344 82.902344 44.5625 C 82.484375 44.726562 82.078125 44.90625 81.679688 45.113281 C 81.28125 45.316406 80.898438 45.542969 80.523438 45.792969 C 80.152344 46.039062 79.792969 46.304688 79.449219 46.589844 C 79.105469 46.875 78.78125 47.179688 78.46875 47.503906 C 78.160156 47.824219 77.867188 48.160156 77.59375 48.515625 C 77.320312 48.867188 77.066406 49.234375 76.832031 49.617188 C 76.597656 50 76.386719 50.390625 76.195312 50.796875 C 76.003906 51.199219 75.835938 51.613281 75.691406 52.035156 C 75.542969 52.457031 75.421875 52.886719 75.324219 53.324219 C 75.222656 53.761719 75.148438 54.199219 75.097656 54.644531 C 75.046875 55.089844 75.019531 55.535156 75.019531 55.980469 C 75.015625 56.429688 75.035156 56.875 75.082031 57.320312 C 75.128906 57.761719 75.199219 58.203125 75.292969 58.640625 C 75.386719 59.078125 75.503906 59.507812 75.644531 59.933594 C 75.789062 60.355469 75.953125 60.773438 76.136719 61.179688 C 76.324219 61.585938 76.53125 61.980469 76.761719 62.363281 C 76.992188 62.746094 77.242188 63.117188 77.511719 63.472656 C 77.78125 63.832031 78.066406 64.171875 78.375 64.496094 C 78.683594 64.820312 79.003906 65.128906 79.347656 65.417969 C 79.6875 65.710938 80.042969 65.980469 80.410156 66.230469 C 80.78125 66.480469 81.164062 66.710938 81.558594 66.921875 C 81.953125 67.132812 82.359375 67.320312 82.773438 67.484375 C 83.191406 67.648438 83.613281 67.792969 84.042969 67.910156 C 84.476562 68.03125 84.910156 68.125 85.351562 68.195312 C 85.792969 68.269531 86.238281 68.316406 86.683594 68.339844 C 87.128906 68.363281 87.578125 68.363281 88.023438 68.335938 C 88.46875 68.3125 88.914062 68.261719 89.355469 68.1875 C 89.792969 68.113281 90.230469 68.015625 90.660156 67.894531 C 91.089844 67.773438 91.515625 67.628906 91.929688 67.460938 C 92.34375 67.296875 92.746094 67.105469 93.140625 66.894531 C 93.535156 66.683594 93.917969 66.453125 94.285156 66.199219 C 94.652344 65.945312 95.007812 65.671875 95.347656 65.382812 C 95.6875 65.089844 96.007812 64.78125 96.3125 64.453125 C 96.617188 64.128906 96.90625 63.785156 97.171875 63.429688 C 97.441406 63.070312 97.691406 62.699219 97.917969 62.316406 L 176.035156 62.316406 C 176.261719 62.699219 176.511719 63.070312 176.78125 63.429688 C 177.046875 63.785156 177.335938 64.128906 177.640625 64.453125 C 177.945312 64.78125 178.265625 65.089844 178.605469 65.382812 C 178.945312 65.671875 179.300781 65.945312 179.667969 66.199219 C 180.035156 66.453125 180.417969 66.683594 180.8125 66.894531 C 181.207031 67.105469 181.609375 67.296875 182.023438 67.460938 C 182.441406 67.628906 182.863281 67.773438 183.292969 67.894531 C 183.722656 68.015625 184.160156 68.113281 184.597656 68.1875 C 185.039062 68.261719 185.484375 68.3125 185.929688 68.335938 C 186.375 68.363281 186.824219 68.363281 187.269531 68.339844 C 187.714844 68.316406 188.160156 68.269531 188.601562 68.195312 C 189.042969 68.125 189.480469 68.03125 189.910156 67.910156 C 190.339844 67.792969 190.761719 67.648438 191.179688 67.484375 C 191.59375 67.320312 192 67.132812 192.394531 66.921875 C 192.789062 66.710938 193.171875 66.480469 193.542969 66.230469 C 193.910156 65.980469 194.265625 65.710938 194.605469 65.417969 C 194.949219 65.128906 195.269531 64.820312 195.578125 64.496094 C 195.886719 64.171875 196.171875 63.832031 196.441406 63.472656 C 196.710938 63.117188 196.960938 62.746094 197.191406 62.363281 C 197.421875 61.980469 197.628906 61.585938 197.816406 61.179688 C 198 60.773438 198.164062 60.355469 198.308594 59.933594 C 198.449219 59.507812 198.566406 59.078125 198.660156 58.640625 C 198.753906 58.203125 198.824219 57.761719 198.871094 57.320312 C 198.917969 56.875 198.9375 56.429688 198.9375 55.980469 C 198.933594 55.535156 198.90625 55.089844 198.855469 54.644531 C 198.804688 54.199219 198.730469 53.761719 198.628906 53.324219 C 198.53125 52.886719 198.410156 52.457031 198.261719 52.035156 C 198.117188 51.613281 197.949219 51.199219 197.757812 50.796875 C 197.566406 50.390625 197.355469 50 197.121094 49.617188 C 196.886719 49.234375 196.632812 48.867188 196.359375 48.515625 C 196.085938 48.160156 195.792969 47.824219 195.484375 47.503906 C 195.175781 47.179688 194.847656 46.875 194.503906 46.589844 C 194.160156 46.304688 193.800781 46.039062 193.429688 45.792969 C 193.054688 45.542969 192.671875 45.316406 192.273438 45.113281 C 191.875 44.90625 191.46875 44.726562 191.050781 44.5625 C 190.636719 44.402344 190.210938 44.265625 189.777344 44.152344 C 189.347656 44.039062 188.910156 43.945312 188.46875 43.878906 C 188.023438 43.8125 187.582031 43.769531 187.132812 43.753906 C 186.6875 43.734375 186.242188 43.738281 185.792969 43.769531 C 185.347656 43.800781 184.90625 43.855469 184.464844 43.933594 C 184.023438 44.011719 183.589844 44.113281 183.160156 44.238281 C 182.734375 44.367188 182.3125 44.515625 181.898438 44.6875 C 181.488281 44.859375 181.085938 45.050781 180.691406 45.269531 C 180.300781 45.484375 179.921875 45.71875 179.554688 45.976562 C 179.191406 46.234375 178.839844 46.511719 178.503906 46.804688 C 178.167969 47.101562 177.847656 47.414062 177.546875 47.742188 C 177.246094 48.074219 176.960938 48.417969 176.699219 48.777344 C 176.433594 49.140625 176.191406 49.511719 175.96875 49.902344 Z M 97.984375 49.902344 " fill-opacity="1" fill-rule="nonzero"/><g clip-path="url(#2208d63fc5)"><path fill="#8c52ff" d="M 151.402344 94.390625 L 87.332031 94.390625 C 85.988281 94.390625 84.667969 94.222656 83.367188 93.886719 C 82.0625 93.554688 80.824219 93.066406 79.648438 92.421875 C 78.46875 91.777344 77.390625 90.996094 76.410156 90.078125 C 75.425781 89.160156 74.574219 88.136719 73.851562 87.003906 C 74.164062 86.691406 74.457031 86.359375 74.730469 86.011719 C 75.007812 85.664062 75.265625 85.300781 75.5 84.925781 C 75.738281 84.550781 75.953125 84.164062 76.148438 83.765625 C 76.34375 83.367188 76.515625 82.957031 76.664062 82.539062 C 76.816406 82.121094 76.945312 81.699219 77.046875 81.265625 C 77.152344 80.835938 77.234375 80.398438 77.292969 79.960938 C 77.347656 79.519531 77.382812 79.078125 77.390625 78.632812 C 77.402344 78.191406 77.386719 77.746094 77.347656 77.304688 C 77.3125 76.863281 77.25 76.425781 77.164062 75.988281 C 77.078125 75.554688 76.96875 75.125 76.835938 74.699219 C 76.703125 74.277344 76.550781 73.863281 76.371094 73.453125 C 76.195312 73.046875 75.996094 72.652344 75.777344 72.265625 C 75.554688 71.878906 75.316406 71.507812 75.054688 71.148438 C 74.796875 70.789062 74.515625 70.445312 74.21875 70.117188 C 73.921875 69.785156 73.605469 69.476562 73.273438 69.179688 C 72.945312 68.882812 72.597656 68.609375 72.234375 68.351562 C 71.875 68.09375 71.5 67.855469 71.113281 67.636719 C 70.726562 67.421875 70.328125 67.226562 69.921875 67.050781 C 69.511719 66.875 69.097656 66.726562 68.671875 66.597656 C 68.246094 66.464844 67.816406 66.359375 67.382812 66.277344 C 66.945312 66.195312 66.503906 66.136719 66.0625 66.101562 C 65.621094 66.066406 65.179688 66.054688 64.734375 66.070312 C 64.289062 66.082031 63.847656 66.117188 63.410156 66.179688 C 62.96875 66.238281 62.535156 66.324219 62.105469 66.433594 C 61.675781 66.539062 61.25 66.671875 60.835938 66.824219 C 60.417969 66.976562 60.011719 67.152344 59.613281 67.351562 C 59.214844 67.546875 58.832031 67.765625 58.457031 68.007812 C 58.082031 68.246094 57.722656 68.503906 57.378906 68.78125 C 57.03125 69.0625 56.703125 69.355469 56.390625 69.671875 C 56.074219 69.984375 55.78125 70.316406 55.5 70.660156 C 55.222656 71.007812 54.964844 71.367188 54.726562 71.742188 C 54.488281 72.113281 54.269531 72.5 54.070312 72.898438 C 53.875 73.296875 53.699219 73.703125 53.546875 74.117188 C 53.394531 74.535156 53.261719 74.957031 53.15625 75.390625 C 53.046875 75.820312 52.964844 76.253906 52.902344 76.695312 C 52.84375 77.132812 52.808594 77.574219 52.792969 78.019531 C 52.78125 78.464844 52.792969 78.90625 52.828125 79.347656 C 52.863281 79.789062 52.921875 80.230469 53.007812 80.667969 C 53.089844 81.101562 53.195312 81.53125 53.324219 81.957031 C 53.453125 82.382812 53.605469 82.796875 53.78125 83.207031 C 53.957031 83.613281 54.152344 84.011719 54.371094 84.398438 C 54.585938 84.785156 54.824219 85.160156 55.082031 85.519531 C 55.339844 85.878906 55.617188 86.226562 55.914062 86.558594 C 56.207031 86.890625 56.519531 87.203125 56.851562 87.5 C 57.179688 87.796875 57.523438 88.078125 57.882812 88.335938 C 58.242188 88.597656 58.617188 88.835938 59 89.054688 C 59.386719 89.277344 59.785156 89.472656 60.191406 89.652344 C 60.597656 89.828125 61.011719 89.980469 61.4375 90.113281 C 62 91.351562 62.648438 92.542969 63.378906 93.6875 C 64.113281 94.832031 64.925781 95.917969 65.8125 96.945312 C 66.703125 97.972656 67.660156 98.933594 68.683594 99.824219 C 69.710938 100.71875 70.792969 101.53125 71.9375 102.265625 C 73.078125 103.003906 74.269531 103.65625 75.503906 104.222656 C 76.742188 104.785156 78.011719 105.261719 79.3125 105.644531 C 80.617188 106.03125 81.941406 106.320312 83.289062 106.515625 C 84.632812 106.710938 85.984375 106.808594 87.34375 106.808594 L 151.402344 106.808594 C 152.703125 106.808594 154.003906 106.871094 155.300781 107 C 156.601562 107.128906 157.886719 107.320312 159.167969 107.574219 C 160.445312 107.828125 161.710938 108.144531 162.957031 108.523438 C 164.203125 108.902344 165.429688 109.339844 166.636719 109.839844 C 167.839844 110.335938 169.015625 110.894531 170.167969 111.507812 C 171.316406 112.125 172.433594 112.792969 173.519531 113.519531 C 174.601562 114.242188 175.648438 115.019531 176.65625 115.84375 C 177.664062 116.671875 178.628906 117.546875 179.550781 118.46875 C 180.472656 119.390625 181.347656 120.355469 182.175781 121.363281 C 183 122.371094 183.777344 123.417969 184.5 124.5 C 185.226562 125.585938 185.894531 126.703125 186.511719 127.851562 C 187.125 129.003906 187.683594 130.179688 188.179688 131.382812 C 188.679688 132.589844 189.117188 133.816406 189.496094 135.0625 C 189.875 136.308594 190.191406 137.574219 190.445312 138.851562 C 190.699219 140.132812 190.890625 141.417969 191.019531 142.71875 C 191.148438 144.015625 191.210938 145.316406 191.210938 146.617188 C 191.210938 147.921875 191.148438 149.222656 191.019531 150.519531 C 190.890625 151.820312 190.699219 153.105469 190.445312 154.386719 C 190.191406 155.664062 189.875 156.929688 189.496094 158.175781 C 189.117188 159.421875 188.679688 160.648438 188.179688 161.855469 C 187.683594 163.058594 187.125 164.234375 186.511719 165.386719 C 185.894531 166.535156 185.226562 167.652344 184.5 168.738281 C 183.777344 169.820312 183 170.867188 182.175781 171.875 C 181.347656 172.882812 180.472656 173.847656 179.550781 174.769531 C 178.628906 175.691406 177.664062 176.566406 176.65625 177.394531 C 175.648438 178.21875 174.601562 178.996094 173.519531 179.71875 C 172.433594 180.445312 171.316406 181.113281 170.167969 181.730469 C 169.015625 182.34375 167.839844 182.898438 166.636719 183.398438 C 165.429688 183.898438 164.203125 184.335938 162.957031 184.714844 C 161.710938 185.09375 160.445312 185.410156 159.167969 185.664062 C 157.886719 185.917969 156.601562 186.109375 155.300781 186.238281 C 154.003906 186.367188 152.703125 186.429688 151.402344 186.429688 L 100.578125 186.429688 C 100.355469 186.042969 100.109375 185.671875 99.839844 185.3125 C 99.574219 184.953125 99.289062 184.609375 98.988281 184.28125 C 98.683594 183.953125 98.363281 183.644531 98.023438 183.351562 C 97.6875 183.058594 97.335938 182.785156 96.96875 182.53125 C 96.601562 182.277344 96.21875 182.042969 95.828125 181.828125 C 95.433594 181.617188 95.03125 181.425781 94.617188 181.257812 C 94.203125 181.085938 93.78125 180.941406 93.351562 180.816406 C 92.921875 180.695312 92.488281 180.59375 92.046875 180.519531 C 91.605469 180.441406 91.164062 180.390625 90.71875 180.363281 C 90.269531 180.335938 89.824219 180.332031 89.378906 180.355469 C 88.933594 180.375 88.488281 180.421875 88.046875 180.488281 C 87.605469 180.558594 87.167969 180.652344 86.738281 180.769531 C 86.304688 180.886719 85.882812 181.027344 85.464844 181.191406 C 85.050781 181.351562 84.644531 181.539062 84.25 181.746094 C 83.851562 181.953125 83.46875 182.179688 83.097656 182.429688 C 82.726562 182.679688 82.371094 182.949219 82.027344 183.234375 C 81.6875 183.523438 81.363281 183.828125 81.054688 184.152344 C 80.746094 184.476562 80.457031 184.816406 80.183594 185.171875 C 79.914062 185.523438 79.660156 185.894531 79.429688 186.277344 C 79.199219 186.660156 78.988281 187.050781 78.800781 187.457031 C 78.609375 187.863281 78.445312 188.277344 78.300781 188.699219 C 78.160156 189.125 78.039062 189.554688 77.941406 189.988281 C 77.847656 190.425781 77.773438 190.867188 77.726562 191.3125 C 77.675781 191.753906 77.652344 192.199219 77.652344 192.648438 C 77.652344 193.09375 77.675781 193.539062 77.726562 193.984375 C 77.773438 194.429688 77.847656 194.867188 77.941406 195.304688 C 78.039062 195.742188 78.160156 196.171875 78.300781 196.59375 C 78.445312 197.019531 78.609375 197.433594 78.800781 197.835938 C 78.988281 198.242188 79.199219 198.636719 79.429688 199.019531 C 79.660156 199.402344 79.914062 199.769531 80.183594 200.125 C 80.457031 200.480469 80.746094 200.820312 81.054688 201.140625 C 81.363281 201.464844 81.6875 201.769531 82.027344 202.058594 C 82.371094 202.347656 82.726562 202.617188 83.097656 202.863281 C 83.46875 203.113281 83.851562 203.34375 84.25 203.550781 C 84.644531 203.757812 85.050781 203.941406 85.464844 204.105469 C 85.882812 204.269531 86.304688 204.410156 86.738281 204.527344 C 87.167969 204.640625 87.605469 204.734375 88.046875 204.804688 C 88.488281 204.875 88.933594 204.917969 89.378906 204.941406 C 89.824219 204.960938 90.269531 204.957031 90.71875 204.929688 C 91.164062 204.902344 91.605469 204.851562 92.046875 204.777344 C 92.488281 204.699219 92.921875 204.601562 93.351562 204.476562 C 93.78125 204.355469 94.203125 204.207031 94.617188 204.039062 C 95.03125 203.871094 95.433594 203.679688 95.828125 203.464844 C 96.21875 203.253906 96.601562 203.019531 96.96875 202.765625 C 97.335938 202.507812 97.6875 202.234375 98.023438 201.941406 C 98.363281 201.648438 98.683594 201.339844 98.988281 201.011719 C 99.289062 200.683594 99.574219 200.339844 99.839844 199.980469 C 100.109375 199.625 100.355469 199.25 100.578125 198.863281 L 151.402344 198.863281 C 153.113281 198.863281 154.820312 198.78125 156.523438 198.613281 C 158.226562 198.445312 159.914062 198.195312 161.59375 197.859375 C 163.273438 197.527344 164.929688 197.113281 166.566406 196.617188 C 168.207031 196.117188 169.816406 195.542969 171.394531 194.886719 C 172.976562 194.234375 174.523438 193.503906 176.03125 192.695312 C 177.539062 191.890625 179.007812 191.011719 180.429688 190.058594 C 181.851562 189.109375 183.226562 188.089844 184.546875 187.003906 C 185.871094 185.917969 187.136719 184.769531 188.347656 183.5625 C 189.558594 182.351562 190.703125 181.085938 191.789062 179.761719 C 192.875 178.4375 193.894531 177.066406 194.84375 175.644531 C 195.796875 174.21875 196.675781 172.753906 197.480469 171.246094 C 198.289062 169.734375 199.019531 168.191406 199.671875 166.609375 C 200.328125 165.027344 200.90625 163.417969 201.402344 161.78125 C 201.898438 160.144531 202.3125 158.488281 202.648438 156.808594 C 202.980469 155.128906 203.230469 153.4375 203.398438 151.734375 C 203.566406 150.03125 203.652344 148.324219 203.652344 146.613281 C 203.652344 144.902344 203.566406 143.195312 203.398438 141.492188 C 203.230469 139.789062 202.980469 138.097656 202.648438 136.421875 C 202.3125 134.742188 201.898438 133.085938 201.402344 131.445312 C 200.902344 129.808594 200.328125 128.199219 199.671875 126.621094 C 199.019531 125.039062 198.289062 123.492188 197.480469 121.984375 C 196.675781 120.476562 195.796875 119.007812 194.84375 117.585938 C 193.894531 116.164062 192.875 114.789062 191.789062 113.46875 C 190.703125 112.144531 189.558594 110.878906 188.347656 109.667969 C 187.136719 108.457031 185.871094 107.308594 184.546875 106.222656 C 183.226562 105.140625 181.851562 104.121094 180.429688 103.171875 C 179.007812 102.21875 177.539062 101.339844 176.03125 100.535156 C 174.523438 99.726562 172.976562 98.996094 171.394531 98.339844 C 169.816406 97.6875 168.207031 97.109375 166.566406 96.613281 C 164.929688 96.117188 163.273438 95.703125 161.59375 95.367188 C 159.914062 95.035156 158.226562 94.785156 156.523438 94.617188 C 154.820312 94.449219 153.113281 94.363281 151.402344 94.363281 Z M 151.402344 94.390625 " fill-opacity="1" fill-rule="nonzero"/></g><path fill="#ecf0f1" d="M 140.78125 175.101562 C 141.003906 175.488281 141.25 175.863281 141.515625 176.222656 C 141.785156 176.582031 142.070312 176.925781 142.371094 177.253906 C 142.675781 177.582031 142.996094 177.894531 143.332031 178.1875 C 143.671875 178.480469 144.023438 178.753906 144.390625 179.007812 C 144.757812 179.265625 145.140625 179.5 145.53125 179.710938 C 145.925781 179.925781 146.328125 180.117188 146.742188 180.285156 C 147.15625 180.457031 147.578125 180.601562 148.007812 180.726562 C 148.4375 180.851562 148.871094 180.949219 149.3125 181.027344 C 149.753906 181.101562 150.199219 181.15625 150.644531 181.183594 C 151.089844 181.210938 151.535156 181.214844 151.984375 181.195312 C 152.429688 181.171875 152.875 181.128906 153.316406 181.058594 C 153.757812 180.988281 154.195312 180.898438 154.628906 180.78125 C 155.058594 180.664062 155.484375 180.523438 155.898438 180.359375 C 156.316406 180.195312 156.722656 180.011719 157.117188 179.804688 C 157.515625 179.597656 157.898438 179.367188 158.269531 179.121094 C 158.640625 178.871094 159 178.601562 159.339844 178.3125 C 159.683594 178.027344 160.007812 177.71875 160.316406 177.398438 C 160.625 177.074219 160.917969 176.734375 161.1875 176.378906 C 161.460938 176.023438 161.710938 175.65625 161.945312 175.273438 C 162.175781 174.890625 162.386719 174.496094 162.574219 174.089844 C 162.761719 173.683594 162.929688 173.269531 163.074219 172.847656 C 163.214844 172.421875 163.335938 171.992188 163.433594 171.554688 C 163.53125 171.117188 163.601562 170.679688 163.652344 170.234375 C 163.699219 169.789062 163.722656 169.34375 163.722656 168.894531 C 163.722656 168.449219 163.699219 168.003906 163.652344 167.558594 C 163.601562 167.113281 163.53125 166.671875 163.433594 166.234375 C 163.335938 165.800781 163.214844 165.371094 163.074219 164.945312 C 162.929688 164.523438 162.761719 164.105469 162.574219 163.703125 C 162.386719 163.296875 162.175781 162.902344 161.945312 162.519531 C 161.710938 162.136719 161.460938 161.769531 161.1875 161.414062 C 160.917969 161.058594 160.625 160.71875 160.316406 160.394531 C 160.007812 160.070312 159.683594 159.765625 159.339844 159.476562 C 159 159.191406 158.640625 158.921875 158.269531 158.671875 C 157.898438 158.421875 157.515625 158.195312 157.117188 157.988281 C 156.722656 157.78125 156.316406 157.59375 155.898438 157.429688 C 155.484375 157.269531 155.058594 157.128906 154.628906 157.011719 C 154.195312 156.894531 153.757812 156.800781 153.316406 156.734375 C 152.875 156.664062 152.429688 156.617188 151.984375 156.597656 C 151.535156 156.578125 151.089844 156.582031 150.644531 156.609375 C 150.199219 156.636719 149.753906 156.6875 149.3125 156.765625 C 148.871094 156.839844 148.4375 156.941406 148.007812 157.066406 C 147.578125 157.1875 147.15625 157.335938 146.742188 157.503906 C 146.328125 157.675781 145.925781 157.867188 145.53125 158.078125 C 145.140625 158.292969 144.757812 158.527344 144.390625 158.78125 C 144.023438 159.039062 143.671875 159.3125 143.332031 159.605469 C 142.996094 159.898438 142.675781 160.210938 142.371094 160.539062 C 142.070312 160.867188 141.785156 161.210938 141.515625 161.570312 C 141.25 161.929688 141.003906 162.300781 140.78125 162.6875 L 62.734375 162.6875 C 62.507812 162.304688 62.261719 161.929688 61.996094 161.570312 C 61.730469 161.210938 61.445312 160.867188 61.140625 160.539062 C 60.839844 160.210938 60.519531 159.902344 60.179688 159.605469 C 59.84375 159.3125 59.492188 159.039062 59.125 158.785156 C 58.757812 158.53125 58.375 158.296875 57.984375 158.082031 C 57.589844 157.867188 57.1875 157.675781 56.773438 157.507812 C 56.359375 157.339844 55.9375 157.191406 55.507812 157.066406 C 55.078125 156.945312 54.644531 156.84375 54.203125 156.769531 C 53.761719 156.691406 53.320312 156.640625 52.875 156.613281 C 52.425781 156.585938 51.980469 156.582031 51.535156 156.601562 C 51.085938 156.621094 50.644531 156.667969 50.203125 156.738281 C 49.761719 156.804688 49.324219 156.898438 48.890625 157.015625 C 48.460938 157.132812 48.035156 157.273438 47.621094 157.4375 C 47.203125 157.597656 46.796875 157.785156 46.402344 157.992188 C 46.003906 158.199219 45.621094 158.425781 45.25 158.675781 C 44.878906 158.925781 44.523438 159.195312 44.179688 159.480469 C 43.839844 159.769531 43.511719 160.074219 43.203125 160.398438 C 42.894531 160.722656 42.605469 161.0625 42.332031 161.417969 C 42.0625 161.769531 41.808594 162.140625 41.578125 162.523438 C 41.347656 162.90625 41.136719 163.296875 40.949219 163.703125 C 40.761719 164.109375 40.59375 164.523438 40.449219 164.945312 C 40.308594 165.371094 40.1875 165.800781 40.089844 166.238281 C 39.992188 166.671875 39.921875 167.113281 39.871094 167.558594 C 39.824219 168.003906 39.800781 168.449219 39.800781 168.894531 C 39.800781 169.34375 39.824219 169.789062 39.871094 170.234375 C 39.921875 170.675781 39.992188 171.117188 40.089844 171.554688 C 40.1875 171.992188 40.308594 172.421875 40.449219 172.84375 C 40.59375 173.269531 40.761719 173.683594 40.949219 174.085938 C 41.136719 174.492188 41.347656 174.886719 41.578125 175.269531 C 41.808594 175.652344 42.0625 176.019531 42.332031 176.375 C 42.605469 176.730469 42.894531 177.070312 43.203125 177.394531 C 43.511719 177.714844 43.839844 178.023438 44.179688 178.308594 C 44.523438 178.597656 44.878906 178.867188 45.25 179.117188 C 45.621094 179.363281 46.003906 179.59375 46.402344 179.800781 C 46.796875 180.007812 47.203125 180.191406 47.621094 180.355469 C 48.035156 180.519531 48.460938 180.660156 48.890625 180.777344 C 49.324219 180.890625 49.761719 180.984375 50.203125 181.054688 C 50.644531 181.125 51.085938 181.167969 51.535156 181.191406 C 51.980469 181.210938 52.425781 181.207031 52.875 181.179688 C 53.320312 181.152344 53.761719 181.097656 54.203125 181.023438 C 54.644531 180.945312 55.078125 180.847656 55.507812 180.722656 C 55.9375 180.601562 56.359375 180.453125 56.773438 180.285156 C 57.1875 180.113281 57.589844 179.921875 57.984375 179.710938 C 58.375 179.496094 58.757812 179.261719 59.125 179.007812 C 59.492188 178.75 59.84375 178.476562 60.179688 178.183594 C 60.519531 177.890625 60.839844 177.582031 61.140625 177.253906 C 61.445312 176.925781 61.730469 176.582031 61.996094 176.222656 C 62.261719 175.863281 62.507812 175.488281 62.734375 175.101562 Z M 140.78125 175.101562 " fill-opacity="1" fill-rule="nonzero"/></svg>